<?xml version="1.0" encoding="utf-8"?>
<!-- Generator: Adobe Illustrator 16.0.0, SVG Export Plug-In . SVG Version: 6.00 Build 0)  -->
<!DOCTYPE svg PUBLIC "-//W3C//DTD SVG 1.1//EN" "http://www.w3.org/Graphics/SVG/1.1/DTD/svg11.dtd">
<svg version="1.1" id="Layer_1" xmlns="http://www.w3.org/2000/svg" xmlns:xlink="http://www.w3.org/1999/xlink" x="0px" y="0px"
	 width="500px" height="300px" viewBox="0 0 500 300" enable-background="new 0 0 500 300" xml:space="preserve">
<g>
	<path fill="none" stroke="#231F20" stroke-linecap="round" stroke-linejoin="round" stroke-miterlimit="10" d="M410.271,78.015
		c0,0-16.035,14.462-2.65,26.305c0,0,16.461,10.479-1.613,33.444"/>
	<g>
		<g>
			<g>
				<path fill="#09A4A0" d="M436.874,55.295c2.1-11.064-8.059-13.319-8.059-13.319c-8.929-1.699-12.529,5.787-13.429,7.958
					c-0.026-2.349-0.506-10.608-9.438-12.31c0,0-10.279-1.634-12.379,9.431c0,0-3.295,13.78,16.678,29.5l-0.031,0.145
					c0.056-0.014,0.104-0.036,0.156-0.049c0.039,0.033,0.086,0.071,0.125,0.101l0.023-0.146
					C434.874,69.317,436.874,55.295,436.874,55.295z"/>
			</g>
			<polygon fill="#09A4A0" points="411.066,73.449 406.979,79.417 412.861,80.531 			"/>
		</g>
	</g>
	<path fill="none" stroke="#231F20" stroke-linecap="round" stroke-linejoin="round" stroke-miterlimit="10" d="M82.903,167.422
		c0,0,11.796,7.311,4.687,16.334c0,0-9.212,8.51,4.848,20.965"/>
	<g>
		<path fill="#EF67A5" d="M63.478,156.098c-2.595-6.756,3.572-9.346,3.572-9.346c5.451-2.097,8.586,2.227,9.402,3.498
			c-0.251-1.488-0.894-6.769,4.563-8.865c0,0,6.313-2.209,8.907,4.547c0,0,3.66,8.338-7.172,20.565l0.037,0.09
			c-0.036-0.006-0.069-0.014-0.104-0.016c-0.021,0.023-0.047,0.057-0.068,0.076l-0.031-0.088
			C66.349,164.736,63.478,156.098,63.478,156.098z"/>
		<polygon fill="#EF67A5" points="81.878,164.626 85.145,167.932 81.554,169.311 		"/>
	</g>
	<rect x="106.348" y="205.271" fill="#624010" width="267.425" height="20.422"/>
	<rect x="113.107" y="210.111" fill="#624010" width="9.999" height="52.35"/>
	<rect x="357.016" y="210.111" fill="#624010" width="9.997" height="52.35"/>
	<rect x="235.061" y="210.111" fill="#624010" width="9.999" height="52.35"/>
	<rect x="120.091" y="117.202" fill="#8A5D24" width="239.938" height="19.761"/>
	<rect x="123.106" y="139.921" fill="#8A5D24" width="233.91" height="19.76"/>
	<rect x="120.091" y="163.047" fill="#8A5D24" width="239.938" height="19.76"/>
	<rect x="120.091" y="185.514" fill="#8A5D24" width="239.938" height="19.758"/>
	<g>
		<g>
			<g>
				<path fill="#C99C6A" d="M266.8,166.086c0,0-9.477,14.293-18.166,33.793l-5.75-0.75c0,0,7.73-30.846,21.699-37.5"/>
				<circle fill="#B48C5F" cx="245.761" cy="205.97" r="8.335"/>
			</g>
			<g>
				<path fill="#C99C6A" d="M308.057,166.086c0,0,9.125,16.26,17.813,35.76l5.75-0.75c0,0-7.377-32.813-21.347-39.467"/>
				<circle fill="#B48C5F" cx="329.479" cy="204.556" r="8.335"/>
			</g>
			<path fill="#0071BB" d="M319.055,217.379c-20.657,6-42.595,6-63.251,0c0-2.584,1.023-5.168,1.023-7.75c21.084,0,40.166,0,61.25,0
				C318.08,212.211,319.055,214.795,319.055,217.379z"/>
			<g>
				<polygon fill="#0071BB" points="281.58,253.744 274.08,253.744 270.955,218.324 281.869,218.324 				"/>
				<rect x="260.33" y="251.994" fill="#383738" width="21.25" height="6.25"/>
			</g>
			<g>
				<polygon fill="#0071BB" points="294.132,253.744 301.632,253.744 305.333,218.324 294.421,218.324 				"/>
				<rect x="294.419" y="251.994" fill="#383738" width="21.25" height="6.25"/>
			</g>
			<path fill="#391E0E" d="M245.063,110.688c0,0-6.255,45.167-3.922,49.833c0,0,29.669,14.669,90.921,0.668
				c0,0-0.969-11.668-3.316-50.5L245.063,110.688L245.063,110.688z"/>
			<g>
				<path fill="#383738" d="M297.893,146.511h-23.334c0,0-19.413,21.401-18.746,69.243h63.25
					C319.063,215.754,316.227,163.045,297.893,146.511z"/>
				<path fill="#656668" d="M273.273,144.439c0,0,5.167,2.613,23.5,0c0,0,4.25,4.236,11.584,6.398c0,0-8.449,9.732-21.894,0
					c0,0-10.439,7.211-24.439,1.803C262.024,152.641,270.886,146.941,273.273,144.439z"/>
				<path fill="#656668" d="M290.998,164.922c0-1.822-1.686-1.875-1.686-1.875c-1.472,0-1.808,1.674-1.885,2.047
					c-0.075-0.373-0.411-2.047-1.884-2.047c0,0-1.685,0.053-1.685,1.875c0,0-0.104,2.289,3.546,4.184v0.025
					c0.008-0.004,0.014-0.01,0.021-0.016c0.009,0.006,0.016,0.012,0.023,0.016v-0.025
					C291.102,167.211,290.998,164.922,290.998,164.922z"/>
				<path fill="#656668" d="M290.998,183.311c0-1.822-1.686-1.875-1.686-1.875c-1.472,0-1.808,1.674-1.885,2.047
					c-0.075-0.373-0.411-2.047-1.884-2.047c0,0-1.685,0.053-1.685,1.875c0,0-0.104,2.289,3.546,4.184v0.025
					c0.008-0.004,0.014-0.008,0.021-0.014c0.009,0.006,0.016,0.01,0.023,0.014v-0.025
					C291.102,185.6,290.998,183.311,290.998,183.311z"/>
				<path fill="#656668" d="M290.998,201.752c0-1.822-1.686-1.873-1.686-1.873c-1.472,0-1.808,1.672-1.885,2.045
					c-0.075-0.373-0.411-2.045-1.884-2.045c0,0-1.685,0.051-1.685,1.873c0,0-0.104,2.291,3.546,4.186v0.023
					c0.008-0.006,0.014-0.01,0.021-0.014c0.009,0.004,0.016,0.008,0.023,0.014v-0.023
					C291.102,204.043,290.998,201.752,290.998,201.752z"/>
			</g>
			<ellipse fill="#1B75BB" cx="285.818" cy="93.94" rx="42.928" ry="39.752"/>
			<g>
				<g>
					<g>
						
							<ellipse transform="matrix(-0.9928 0.1194 -0.1194 -0.9928 499.0692 191.4765)" fill="#B48C5F" cx="243.797" cy="110.692" rx="6.166" ry="8.417"/>
					</g>
					<g>
						
							<ellipse transform="matrix(0.9928 0.1194 -0.1194 0.9928 15.5727 -38.5511)" fill="#B48C5F" cx="329.493" cy="110.678" rx="6.167" ry="8.417"/>
					</g>
				</g>
			</g>
			<circle fill="#C99C6A" cx="286.643" cy="103.938" r="43.75"/>
			<path fill="#391E0E" d="M241.141,102.162c0-21.172,15.921-42.667,43.292-42.667c29.296,0,45.96,21.495,45.96,42.667
				c0,0-43.75,1.776-61.666-14.974c0,0-4.666,10.581-26,15.11L241.141,102.162z"/>
			<path fill="none" stroke="#C46D5A" stroke-width="3" stroke-linecap="round" stroke-linejoin="round" stroke-miterlimit="10" d="
				M279.896,116.398c0,0-2.65,5.23,2.588,5.23"/>
			<path fill="none" stroke="#391E0E" stroke-width="3" stroke-linecap="round" stroke-linejoin="round" stroke-miterlimit="10" d="
				M292.457,127.626c0,0-2.383,5.332-10.957,5.332c0,0-7.869,0-10.242-5.332"/>
			<circle fill="#391E0E" cx="267.332" cy="108.961" r="2.667"/>
			<circle fill="#391E0E" cx="295.124" cy="108.961" r="2.667"/>
			<ellipse fill="#C78B64" cx="254.124" cy="117.669" rx="4.725" ry="5.799"/>
			<circle fill="#C78B64" cx="307.457" cy="117.669" r="5.797"/>
		</g>
		<g>
			
				<ellipse transform="matrix(-0.9928 0.1194 -0.1194 -0.9928 309.0618 203.07)" fill="#C99C6A" cx="148.447" cy="110.794" rx="6.167" ry="8.416"/>
			<path fill="#004376" d="M216.749,214.719c-17.423,6-37.212,3.959-54.634-2.041c0-2.584,0-7.184,0-9.766
				c17.783,0,36.852-1.018,54.634-1.018C216.749,204.479,216.749,212.135,216.749,214.719z"/>
			<g>
				<polygon fill="#004376" points="184.593,255.576 177.093,255.576 174.453,213.852 184.593,216.316 				"/>
				<rect x="163.343" y="253.826" fill="#383738" width="21.25" height="6.25"/>
			</g>
			<g>
				<polygon fill="#004376" points="197.148,255.576 204.648,255.576 208.061,215.455 197.148,215.455 				"/>
				<rect x="197.436" y="253.826" fill="#383738" width="21.25" height="6.25"/>
			</g>
			<g>
				<g>
					<g>
						<path fill="#D5A570" d="M162.115,159.377c0,0-7.424,15.461-13.351,35.969l-5.799,0.047c0,0,3.42-31.611,16.341-40.125"/>
					</g>
					<g>
						<circle fill="#C99C6A" cx="146.753" cy="201.774" r="8.335"/>
					</g>
				</g>
			</g>
			<g>
				<g>
					<g>
						<path fill="#D5A570" d="M221.442,163.979c0,0,6.247,17.568,11.517,38.256l5.795,0.232c0,0-1.73-33.586-14.373-42.506"/>
					</g>
					<g>
						<circle fill="#C99C6A" cx="236.057" cy="205.516" r="8.336"/>
					</g>
				</g>
			</g>
			<path fill="#6FAE6A" d="M193.397,146.157l-17.25-2c0,0-15.997,4.093-27.693,20.572l9.661,7c0,0,6.285-6.822,8.285-8.822
				c0,0-5.535,33.821-4.285,44.821h55.131c0,0,0-23.15,0.151-46.321l5.646,13.072l9.612-8.289c0,0-10.259-18.783-25.759-22.033
				L193.397,146.157z"/>
			<polygon fill="#8CC977" points="209.272,144.157 213.772,147.407 205.772,158.907 191.272,147.907 176.022,158.907 
				167.522,148.657 172.272,144.157 			"/>
			<rect x="189.099" y="147.792" fill="#8CC977" width="4.248" height="59.937"/>
			
				<ellipse transform="matrix(0.9928 0.1194 -0.1194 0.9928 14.9068 -27.1763)" fill="#C99C6A" cx="234.203" cy="110.788" rx="6.166" ry="8.417"/>
			<circle fill="#D5A570" cx="193.099" cy="104.042" r="43.75"/>
			<path fill="none" stroke="#C46D5A" stroke-width="3" stroke-linecap="round" stroke-linejoin="round" stroke-miterlimit="10" d="
				M198.287,116.5c0,0,2.652,5.229-2.59,5.229"/>
			<path fill="none" stroke="#391E0E" stroke-width="3" stroke-linecap="round" stroke-linejoin="round" stroke-miterlimit="10" d="
				M208.929,127.73c0,0-2.381,5.332-10.956,5.332c0,0-7.87,0-10.242-5.332"/>
			<circle fill="#391E0E" cx="183.803" cy="109.063" r="2.667"/>
			<circle fill="#391E0E" cx="211.596" cy="109.063" r="2.667"/>
			<circle fill="#D3976B" cx="170.596" cy="117.773" r="5.798"/>
			<ellipse fill="#D3976B" cx="223.93" cy="117.773" rx="4.752" ry="5.797"/>
			<path fill="#321605" d="M193.099,60.292c-24.076,0-43.605,19.449-43.744,43.492c7.736-12.332,16.217-15.713,16.217-15.713
				c29.9-5.344,56.305-0.202,56.305-0.202c6.736,5.688,14.271,20.142,14.271,20.142c0.258-1.043,0.477-2.048,0.678-3.034
				c0.006-0.313,0.023-0.621,0.023-0.935C236.849,79.879,217.261,60.292,193.099,60.292z"/>
			<path fill="#321605" d="M194.084,60.487c0,0,10.674-0.229,19.091-2.528c0,0,2.659,5.076,11.258,4.188
				c0,0,1.695,6.563,7.848,6.641c0,0-3.502,6.341,1.905,20.189"/>
		</g>
	</g>
	<path fill="none" stroke="#231F20" stroke-linecap="round" stroke-linejoin="round" stroke-miterlimit="10" d="M348.52,130.454
		c0,0-24.334,15.08-9.668,33.689c0,0,19.002,17.554-9.998,43.247"/>
	<g>
		<path fill="#C61F25" d="M388.589,107.095c5.353-13.938-7.369-19.277-7.369-19.277c-11.244-4.324-17.71,4.591-19.395,7.213
			c0.518-3.07,1.844-13.96-9.41-18.287c0,0-13.022-4.558-18.375,9.382c0,0-7.551,17.198,14.795,42.421l-0.075,0.18
			c0.073-0.004,0.143-0.023,0.215-0.027c0.043,0.054,0.096,0.113,0.141,0.16l0.064-0.184
			C382.667,124.917,388.589,107.095,388.589,107.095z"/>
		<polygon fill="#C61F25" points="350.634,124.685 343.893,131.503 351.305,134.347 		"/>
	</g>
	<path fill="none" stroke="#231F20" stroke-linecap="round" stroke-linejoin="round" stroke-miterlimit="10" d="M139.443,126.214
		c0,0,22.066,18.235,5.015,34.688c0,0-21.203,14.82,4.05,44.205"/>
	<g>
		<path fill="#8E4B9C" d="M102.905,97.643c-3.415-14.535,9.912-18.102,9.912-18.102c11.725-2.763,16.925,6.946,18.238,9.771
			c-0.097-3.112,0.064-14.08,11.801-16.844c0,0,13.52-2.752,16.935,11.783c0,0,5.152,18.063-20.403,40.026l0.051,0.189
			c-0.072-0.017-0.138-0.043-0.21-0.058c-0.05,0.046-0.108,0.099-0.159,0.14l-0.039-0.191
			C106.359,116.101,102.905,97.643,102.905,97.643z"/>
		<polygon fill="#8E4B9C" points="138.128,120.21 143.883,127.88 136.156,129.695 		"/>
	</g>
</g>
<rect fill="none" width="500" height="300"/>
</svg>
