<?xml version="1.0" encoding="utf-8"?>
<!-- Generator: Adobe Illustrator 16.0.0, SVG Export Plug-In . SVG Version: 6.00 Build 0)  -->
<!DOCTYPE svg PUBLIC "-//W3C//DTD SVG 1.1//EN" "http://www.w3.org/Graphics/SVG/1.1/DTD/svg11.dtd">
<svg version="1.1" id="Layer_1" xmlns="http://www.w3.org/2000/svg" xmlns:xlink="http://www.w3.org/1999/xlink" x="0px" y="0px"
	 width="500px" height="300px" viewBox="0 0 500 300" enable-background="new 0 0 500 300" xml:space="preserve">
<g>
	<g>
		<rect x="106.131" y="230.468" fill="#624010" width="267.425" height="20.422"/>
		<rect x="112.889" y="235.307" fill="#624010" width="9.999" height="52.351"/>
		<rect x="356.799" y="235.307" fill="#624010" width="9.999" height="52.351"/>
		<rect x="234.843" y="235.307" fill="#624010" width="9.999" height="52.351"/>
		<rect x="119.875" y="142.397" fill="#8A5D24" width="239.938" height="19.762"/>
		<rect x="122.888" y="165.118" fill="#8A5D24" width="233.91" height="19.76"/>
		<rect x="119.875" y="188.243" fill="#8A5D24" width="239.938" height="19.76"/>
		<rect x="119.875" y="210.71" fill="#8A5D24" width="239.938" height="19.758"/>
		<g>
			<path fill="#521605" d="M223.46,218.131c0,12.702-10.297,23-23,23h-18.333c-12.703,0-23-10.298-23-23v-33
				c0-12.703,10.297-23.001,23-23.001h18.333c12.703,0,23,10.298,23,23.001V218.131z"/>
			<g>
				
					<ellipse transform="matrix(0.1194 0.9928 -0.9928 0.1194 265.5486 -27.416)" fill="#C99C6A" cx="148.229" cy="135.989" rx="8.417" ry="6.167"/>
				<path fill="#004376" d="M216.531,239.915c-17.423,6-37.212,3.959-54.634-2.041c0-2.584,0-7.185,0-9.764
					c17.782,0,36.853-1.021,54.634-1.021C216.531,229.675,216.531,237.331,216.531,239.915z"/>
				<g>
					<polygon fill="#004376" points="184.376,280.772 176.876,280.772 174.235,239.048 184.376,241.513 					"/>
					<rect x="163.126" y="279.022" fill="#383738" width="21.25" height="6.25"/>
				</g>
				<g>
					<polygon fill="#004376" points="196.93,280.772 204.43,280.772 207.843,240.653 196.93,240.653 					"/>
					<rect x="197.218" y="279.022" fill="#383738" width="21.25" height="6.25"/>
				</g>
				<g>
					<g>
						<g>
							<path fill="#D5A570" d="M161.897,184.573c0,0-7.425,15.461-13.352,35.969l-5.8,0.047c0,0,3.421-31.611,16.342-40.125"/>
						</g>
						<g>
							<circle fill="#C99C6A" cx="146.536" cy="226.971" r="8.335"/>
						</g>
					</g>
				</g>
				<g>
					<g>
						<g>
							<path fill="#D5A570" d="M221.224,189.175c0,0,6.247,17.568,11.518,38.256l5.795,0.232c0,0-1.729-33.586-14.373-42.506"/>
						</g>
						<g>
							<circle fill="#C99C6A" cx="235.84" cy="230.712" r="8.336"/>
						</g>
					</g>
				</g>
				<path fill="#6FAE6A" d="M193.179,171.354l-17.25-2c0,0-15.997,4.095-27.692,20.572l9.661,7c0,0,6.284-6.822,8.284-8.822
					c0,0-5.534,33.822-4.284,44.822h55.131c0,0,0-23.147,0.15-46.322l5.646,13.072l9.612-8.289c0,0-10.26-18.783-25.76-22.033
					L193.179,171.354z"/>
				<polygon fill="#8CC977" points="209.054,169.354 213.554,172.604 205.554,184.104 191.054,173.104 175.804,184.104 
					167.304,173.854 172.054,169.354 				"/>
				<rect x="188.882" y="172.987" fill="#8CC977" width="4.248" height="59.938"/>
				
					<ellipse transform="matrix(0.1194 -0.9928 0.9928 0.1194 71.0412 352.0458)" fill="#C99C6A" cx="233.979" cy="135.975" rx="8.416" ry="6.166"/>
				<circle fill="#D5A570" cx="192.882" cy="129.238" r="43.75"/>
				
					<path fill="none" stroke="#C46D5A" stroke-width="3" stroke-linecap="round" stroke-linejoin="round" stroke-miterlimit="10" d="
					M198.069,141.697c0,0,2.651,5.229-2.59,5.229"/>
				
					<path fill="none" stroke="#391E0E" stroke-width="3" stroke-linecap="round" stroke-linejoin="round" stroke-miterlimit="10" d="
					M208.712,152.927c0,0-2.381,5.332-10.956,5.332c0,0-7.87,0-10.242-5.332"/>
				<circle fill="#391E0E" cx="183.586" cy="134.26" r="2.667"/>
				<circle fill="#391E0E" cx="211.379" cy="134.26" r="2.667"/>
				<circle fill="#D3976B" cx="170.379" cy="142.969" r="5.798"/>
				<ellipse fill="#D3976B" cx="223.712" cy="142.969" rx="4.752" ry="5.798"/>
				<path fill="#321605" d="M192.882,85.488c-24.076,0-43.604,19.448-43.744,43.491c7.736-12.331,16.217-15.711,16.217-15.711
					c29.899-5.344,56.305-0.202,56.305-0.202c6.736,5.688,14.271,20.143,14.271,20.143c0.259-1.043,0.478-2.048,0.679-3.034
					c0.006-0.313,0.022-0.621,0.022-0.935C236.632,105.076,217.044,85.488,192.882,85.488z"/>
				<path fill="#321605" d="M193.867,85.684c0,0,10.675-0.229,19.092-2.527c0,0,2.658,5.075,11.258,4.188
					c0,0,1.694,6.563,7.849,6.643c0,0-3.502,6.34,1.904,20.188"/>
			</g>
			<path fill="#681605" d="M168.168,172.214c0,0,0.625,39.125-6.375,47.375l-0.375,7.125c0,0,16.499-11.334,9.999-56.834
				L168.168,172.214z"/>
			<path fill="#681605" d="M213.667,171.755c0,0-1.874,40.709,5.126,48.959l-1.375,7c0,0-14.001-12.584-7.501-58.084
				L213.667,171.755z"/>
		</g>
	</g>
	<path fill="#D0D2D3" d="M255.327,107.188c0-2.818-2.284-5.104-5.105-5.104c-0.164,0-0.318,0.033-0.479,0.049
		c-0.78-0.485-1.693-0.778-2.683-0.778c-2.819,0-5.105,2.286-5.105,5.106c0,0.329,0.037,0.646,0.098,0.96
		c-0.957,0.928-1.557,2.222-1.557,3.66c0,2.818,2.286,5.104,5.105,5.104c0.925,0,1.779-0.265,2.527-0.691
		c0.438,0.121,0.888,0.207,1.362,0.207c2.819,0,5.105-2.285,5.105-5.106c0-0.232-0.038-0.459-0.068-0.685
		C255.027,109.118,255.327,108.189,255.327,107.188z"/>
	<path fill="#D0D2D3" d="M285.142,107.855c-1.346-0.766-2.836-1.027-4.264-0.861c-0.488-0.542-1.066-1.021-1.735-1.4
		c-3.358-1.913-7.634-0.74-9.546,2.62c-0.343,0.602-0.582,1.233-0.731,1.875c-0.748,0.56-1.396,1.275-1.89,2.14
		c-1.912,3.359-0.738,7.636,2.62,9.547c0.938,0.532,1.941,0.817,2.95,0.893c0.439,0.445,0.941,0.843,1.515,1.168
		c3.359,1.913,7.634,0.739,9.547-2.62c0.121-0.215,0.23-0.434,0.327-0.654c1.563-0.53,2.946-1.606,3.827-3.154
		C289.676,114.042,288.502,109.768,285.142,107.855z"/>
	<path fill="#D0D2D3" d="M384.177,52.198c6.705-12.958,2.067-28.996-10.728-36.282c-10.395-5.917-23.017-4.242-31.524,3.229
		c-1.436-1.485-3.092-2.808-4.979-3.882c-10.59-6.03-24.067-2.33-30.1,8.268c-0.799,1.401-1.416,2.855-1.881,4.338
		c-0.813-0.654-1.675-1.271-2.611-1.806c-9.565-5.444-21.739-2.104-27.186,7.467c-2.326,4.083-3.037,8.639-2.359,12.942
		c-4.514,1.496-8.518,4.582-11.055,9.04c-5.449,9.567-2.104,21.739,7.463,27.188c4.126,2.349,8.733,3.055,13.082,2.342
		c-0.438,7.339,3.195,14.641,10.021,18.522c9.218,5.247,20.83,2.321,26.54-6.447c0.153-0.008,0.309-0.016,0.458-0.022
		c1.814,2.133,4.002,4.007,6.574,5.475c10.313,5.87,23.062,3.491,30.646-5.028c12.379,5.266,27.006,0.544,33.818-11.428
		C396.894,74.617,394.009,60.362,384.177,52.198z"/>
	<g>
		<g>
			<g>
				<g>
					<defs>
						<path id="SVGID_1_" d="M384.177,52.198c6.705-12.958,2.067-28.996-10.728-36.282c-10.395-5.917-23.017-4.242-31.524,3.229
							c-1.436-1.485-3.092-2.808-4.979-3.882c-10.59-6.03-24.067-2.33-30.1,8.268c-0.799,1.401-1.416,2.855-1.881,4.338
							c-0.813-0.654-1.675-1.271-2.611-1.806c-9.565-5.444-21.739-2.104-27.186,7.467c-2.326,4.083-3.037,8.639-2.359,12.942
							c-4.514,1.496-8.518,4.582-11.055,9.04c-5.449,9.567-2.104,21.739,7.463,27.188c4.126,2.349,8.733,3.055,13.082,2.342
							c-0.438,7.339,3.195,14.641,10.021,18.522c9.218,5.247,20.83,2.321,26.54-6.447c0.153-0.008,0.309-0.016,0.458-0.022
							c1.814,2.133,4.002,4.007,6.574,5.475c10.313,5.87,23.062,3.491,30.646-5.028c12.379,5.266,27.006,0.544,33.818-11.428
							C396.894,74.617,394.009,60.362,384.177,52.198z"/>
					</defs>
					<clipPath id="SVGID_2_">
						<use xlink:href="#SVGID_1_"  overflow="visible"/>
					</clipPath>
					<g clip-path="url(#SVGID_2_)">
						<g>
							<path fill="#C99C6A" d="M318.335,95.605c0,0-10.192,7.121-18.683,18.617l-3.183-2.688c0,0,14.798-15.928,20.438-18.788"/>
						</g>
						<g>
							<path fill="#C99C6A" d="M344.816,95.605c0,0,5.856,10.438,11.436,22.954l3.689-0.479c0,0-4.733-21.063-13.701-25.335"/>
						</g>
						<path fill="#391E0E" d="M304.523,57.295c0,0-6.979,28.423-5.802,31.558c0,0,17.975,11.328,58.009,6.441
							c0,0,0.153-7.514,1.223-32.463L304.523,57.295z"/>
						<g>
							<path fill="#383738" d="M338.293,83.04h-14.979c0,0-12.463,13.739-12.033,44.448h40.603
								C351.882,127.489,350.061,93.654,338.293,83.04z"/>
							<path fill="#656668" d="M322.488,81.711c0,0,3.316,1.677,15.086,0c0,0,2.729,2.72,7.438,4.106c0,0-5.426,6.247-14.054,0
								c0,0-6.701,4.63-15.688,1.155C315.269,86.975,320.957,83.317,322.488,81.711z"/>
							<path fill="#656668" d="M333.864,94.859c0-1.173-1.08-1.204-1.08-1.204c-0.942,0-1.158,1.073-1.21,1.313
								c-0.048-0.239-0.264-1.313-1.208-1.313c0,0-1.081,0.031-1.081,1.204c0,0-0.065,1.47,2.274,2.686v0.017
								c0.007-0.004,0.011-0.006,0.015-0.01c0.006,0.004,0.012,0.006,0.017,0.01v-0.017
								C333.933,96.328,333.864,94.859,333.864,94.859z"/>
							<path fill="#656668" d="M333.864,106.661c0-1.169-1.08-1.203-1.08-1.203c-0.942,0-1.158,1.075-1.21,1.313
								c-0.048-0.237-0.264-1.313-1.208-1.313c0,0-1.081,0.034-1.081,1.203c0,0-0.065,1.47,2.274,2.687v0.019
								c0.007-0.003,0.011-0.006,0.015-0.011c0.006,0.005,0.012,0.008,0.017,0.011v-0.019
								C333.933,108.131,333.864,106.661,333.864,106.661z"/>
							<path fill="#656668" d="M333.864,118.499c0-1.169-1.08-1.202-1.08-1.202c-0.942,0-1.158,1.073-1.21,1.313
								c-0.048-0.24-0.264-1.313-1.208-1.313c0,0-1.081,0.033-1.081,1.202c0,0-0.065,1.472,2.274,2.688v0.017
								c0.007-0.003,0.011-0.005,0.015-0.007c0.006,0.002,0.012,0.004,0.017,0.007v-0.017
								C333.933,119.971,333.864,118.499,333.864,118.499z"/>
						</g>
						
							<ellipse transform="matrix(-0.1031 0.9947 -0.9947 -0.1031 414.876 -275.5128)" fill="#1B75BB" cx="331.654" cy="49.292" rx="25.519" ry="27.557"/>
						<g>
							<g>
								<g>
									
										<ellipse transform="matrix(0.0164 0.9999 -0.9999 0.0164 355.9177 -247.4152)" fill="#B48C5F" cx="303.718" cy="57.202" rx="5.404" ry="3.958"/>
								</g>
								<g>
									
										<ellipse transform="matrix(0.2213 -0.9752 0.9752 0.2213 217.7641 398.5191)" fill="#B48C5F" cx="358.418" cy="62.905" rx="5.402" ry="3.957"/>
								</g>
							</g>
						</g>
						<circle fill="#C99C6A" cx="331.52" cy="55.737" r="28.084"/>
						<path fill="#391E0E" d="M302.586,51.591c1.398-13.518,12.985-26.188,30.463-24.378c18.706,1.939,27.924,16.766,26.521,30.283
							c0,0-28.053-1.761-38.383-13.643c0,0-3.681,6.448-17.603,7.931L302.586,51.591z"/>
						
							<path fill="none" stroke="#C46D5A" stroke-width="1.9257" stroke-linecap="round" stroke-linejoin="round" stroke-miterlimit="10" d="
							M328.515,63.465c0,0-2.039,3.164,1.309,3.511"/>
						
							<path fill="none" stroke="#391E0E" stroke-width="1.9257" stroke-linecap="round" stroke-linejoin="round" stroke-miterlimit="10" d="
							M335.793,71.466c0,0-1.873,3.246-7.35,2.68c0,0-5.023-0.521-6.188-4.082"/>
						<circle fill="#391E0E" cx="320.985" cy="57.886" r="1.712"/>
						<circle fill="#391E0E" cx="338.73" cy="59.724" r="1.713"/>
						<circle fill="#C78B64" cx="311.976" cy="62.573" r="3.721"/>
						<circle fill="#C78B64" cx="346.029" cy="66.101" r="3.72"/>
					</g>
				</g>
			</g>
		</g>
	</g>
</g>
<rect fill="none" width="500" height="300"/>
</svg>
