<?xml version="1.0" encoding="utf-8"?>
<!-- Generator: Adobe Illustrator 16.0.0, SVG Export Plug-In . SVG Version: 6.00 Build 0)  -->
<!DOCTYPE svg PUBLIC "-//W3C//DTD SVG 1.1//EN" "http://www.w3.org/Graphics/SVG/1.1/DTD/svg11.dtd">
<svg version="1.1" id="Layer_1" xmlns="http://www.w3.org/2000/svg" xmlns:xlink="http://www.w3.org/1999/xlink" x="0px" y="0px"
	 width="500px" height="300px" viewBox="0 0 500 300" enable-background="new 0 0 500 300" xml:space="preserve">
<g>
	<path fill="none" stroke="#231F20" stroke-width="2" stroke-linecap="round" stroke-linejoin="round" stroke-miterlimit="10" d="
		M157.612,106.199c59,14.75,96.417,0.792,96.417,0.792c22.295-10.704,21.68-25.028,21.68-25.028
		c0.347-10.952-9.76-11.574-9.76-11.574c-8.847-0.274-11.047,7.47-11.57,9.691c-0.395-2.253-2.23-10.123-11.068-10.398
		c0,0-10.125-0.008-10.471,10.944c0,0-1.064,13.739,20.52,25.813c0,0,37.754,17.593,86.422,10.593"/>
	<g>
		<path fill="#A6A8AB" d="M369.398,123.799l-25.98,2.463c0,0-6.303-11.896-2.898-19.468l23.15-8.102L369.398,123.799z"/>
		
			<ellipse transform="matrix(0.975 -0.2222 0.2222 0.975 -15.5718 84.1483)" fill="#6D6E70" cx="366.267" cy="111.293" rx="4.126" ry="12.875"/>
	</g>
	<path fill="#6FAE6A" d="M98.339,119.287l5.711,6.345c-0.151,23.172,3.474,61.574,3.474,61.574H52.393
		c-1.25-11,4.285-44.823,4.285-44.823s3.798-15.846,5.022-24.846S98.339,119.287,98.339,119.287z"/>
	<polyline fill="#6FAE6A" points="97.175,123.632 83.675,125.632 66.425,123.632 	"/>
	<polygon fill="#8CC977" points="106.174,180.911 101.926,180.911 99.934,120.971 104.182,120.971 	"/>
	<g>
		<g>
			<g>
				<path fill="#D5A570" d="M92.292,145.063c0,0,17.393-3.45,32.888-19.761l4.559,3.584c0,0-22.321,24.344-37.819,21.141"/>
			</g>
			<g>
				<circle fill="#C99C6A" cx="130.766" cy="121.536" r="8.335"/>
			</g>
		</g>
	</g>
	<polyline fill="#8CC977" points="87.714,124.632 102.057,129.872 103.053,117.533 	"/>
	<path fill="none" stroke="#C46D5A" stroke-width="3" stroke-linecap="round" stroke-linejoin="round" stroke-miterlimit="10" d="
		M123.833,84.438c0,0,4.534,3.718-0.264,5.829"/>
	<circle fill="#D5A570" cx="81.236" cy="83.262" r="43.75"/>
	<path fill="none" stroke="#391E0E" stroke-width="3" stroke-linecap="round" stroke-linejoin="round" stroke-miterlimit="10" d="
		M120.119,102.987c0,0-8.885,0.285-12.674-4.153"/>
	<circle fill="#391E0E" cx="112.651" cy="77.274" r="2.666"/>
	<circle fill="#D3976B" cx="100.808" cy="88.424" r="5.797"/>
	<path fill="#321605" d="M89.12,55.074c0,0-2.75,35.93-15.719,33.438c0,0,5.177,19.323-19.362,29.021c0,0-8.251,1.103-15.498-23.854
		C38.541,93.682,53.62,49.802,89.12,55.074z"/>
	<g>
		<g>
			<g>
				
					<ellipse transform="matrix(0.9682 -0.2501 0.2501 0.9682 -20.1082 21.8051)" fill="#C99C6A" cx="75.739" cy="90.019" rx="6.167" ry="8.415"/>
			</g>
		</g>
	</g>
	<path fill="#321605" d="M91.919,56.118c0,0,4.178-0.156,20.338-3.709c0,0-0.176-3.236,1.112-7.232
		c2.399-7.441,8.938-10.375,8.938-10.375c-5.375,1.375-9.556-6.44-9.556-6.44c-7.055,4.995-11.865,1.879-11.865,1.879
		c-6.201,6.14-33.1,9.263-33.1,9.263l-7.75,5.135C39.063,56.46,30.699,81.929,42.386,102.941c0.683-14.543,6.41-21.652,6.41-21.652
		C72.218,61.949,91.919,56.118,91.919,56.118"/>
	<path fill="#004376" d="M107.638,193.186c-17.981,6.002-38.404,3.961-56.384-2.041c0-2.582,0-7.18,0-9.764
		c18.353,0,38.032-1.019,56.384-1.019C107.638,182.948,107.638,190.604,107.638,193.186z"/>
	<g>
		<polygon fill="#004376" points="67.231,267.139 74.731,267.139 78.146,193.485 67.231,193.485 		"/>
		<rect x="67.231" y="265.389" fill="#383738" width="21.25" height="6.25"/>
	</g>
	<g>
		<polygon fill="#004376" points="84.537,267.139 92.037,267.139 95.45,192.628 84.537,192.628 		"/>
		<rect x="84.825" y="265.389" fill="#383738" width="21.25" height="6.25"/>
	</g>
	<g>
		<g>
			<g>
				<g>
					<path fill="#C99C6A" d="M391.916,161.859c0,0-15.627-8.379-25.686-28.502l-5.404,2.097c0,0,14.24,29.8,29.998,31.263"/>
				</g>
				<g>
					<circle fill="#B48C5F" cx="361.992" cy="128.126" r="8.335"/>
				</g>
			</g>
		</g>
		<path fill="#391E0E" d="M372.287,107.799c0,0-6.254,45.167-3.92,49.833c0,0,29.668,14.668,90.92,0.668
			c0,0-0.969-11.668-3.318-50.5L372.287,107.799L372.287,107.799z"/>
		<path fill="#0071BB" d="M446.283,214.489c-20.656,6-42.594,6-63.25,0c0-2.584,1.02-5.168,1.02-7.75c21.086,0,40.166,0,61.25,0
			C445.303,209.321,446.283,211.905,446.283,214.489z"/>
		<g>
			<polygon fill="#0071BB" points="408.803,265.239 401.303,265.239 397.893,217.743 408.803,217.743 			"/>
			<rect x="387.553" y="263.489" fill="#383738" width="21.25" height="6.25"/>
		</g>
		<g>
			<polygon fill="#0071BB" points="421.361,265.239 428.861,265.239 432.273,217.743 421.361,217.743 			"/>
			<rect x="421.648" y="263.489" fill="#383738" width="21.25" height="6.25"/>
		</g>
		<g>
			<path fill="#383738" d="M425.117,143.62h-23.332c0,0-19.414,21.403-18.748,69.244h63.25
				C446.287,212.864,443.451,160.154,425.117,143.62z"/>
			<path fill="#656668" d="M400.5,141.549c0,0,5.166,2.612,23.5,0c0,0,4.25,4.235,11.582,6.397c0,0-8.451,9.734-21.891,0
				c0,0-10.441,7.211-24.441,1.804C389.25,149.75,398.115,144.051,400.5,141.549z"/>
			<path fill="#656668" d="M418.225,162.031c0-1.821-1.688-1.875-1.688-1.875c-1.471,0-1.807,1.674-1.883,2.047
				c-0.076-0.373-0.412-2.047-1.885-2.047c0,0-1.684,0.054-1.684,1.875c0,0-0.105,2.289,3.545,4.185v0.024
				c0.008-0.004,0.016-0.008,0.021-0.015c0.01,0.007,0.016,0.011,0.021,0.015v-0.024
				C418.326,164.32,418.225,162.031,418.225,162.031z"/>
			<path fill="#656668" d="M418.225,180.421c0-1.822-1.688-1.875-1.688-1.875c-1.471,0-1.807,1.674-1.883,2.047
				c-0.076-0.373-0.412-2.047-1.885-2.047c0,0-1.684,0.053-1.684,1.875c0,0-0.105,2.289,3.545,4.184v0.025
				c0.008-0.004,0.016-0.008,0.021-0.014c0.01,0.006,0.016,0.01,0.021,0.014v-0.025C418.326,182.71,418.225,180.421,418.225,180.421
				z"/>
			<path fill="#656668" d="M418.225,198.862c0-1.822-1.688-1.873-1.688-1.873c-1.471,0-1.807,1.672-1.883,2.045
				c-0.076-0.373-0.412-2.045-1.885-2.045c0,0-1.684,0.051-1.684,1.873c0,0-0.105,2.291,3.545,4.186v0.023
				c0.008-0.004,0.016-0.01,0.021-0.014c0.01,0.004,0.016,0.01,0.021,0.014v-0.023C418.326,201.153,418.225,198.862,418.225,198.862
				z"/>
		</g>
		<ellipse fill="#1B75BB" cx="413.045" cy="91.051" rx="42.924" ry="39.752"/>
		<g>
			<g>
				<g>
					
						<ellipse transform="matrix(-0.9929 0.1194 -0.1194 -0.9929 752.2347 170.5619)" fill="#B48C5F" cx="371.01" cy="107.807" rx="6.165" ry="8.417"/>
				</g>
				<g>
					
						<ellipse transform="matrix(0.9929 0.1193 -0.1193 0.9929 16.1255 -53.7328)" fill="#B48C5F" cx="456.72" cy="107.778" rx="6.166" ry="8.418"/>
				</g>
			</g>
		</g>
		<circle fill="#C99C6A" cx="413.869" cy="101.049" r="43.75"/>
		<path fill="#391E0E" d="M368.367,99.271c0-21.171,15.92-42.665,43.291-42.665c29.297,0,45.961,21.494,45.961,42.665
			c0,0-43.75,1.777-61.668-14.973c0,0-4.666,10.58-26,15.108L368.367,99.271z"/>
		<path fill="none" stroke="#C46D5A" stroke-width="3" stroke-linecap="round" stroke-linejoin="round" stroke-miterlimit="10" d="
			M410.455,113.508c0,0-2.652,5.229,2.59,5.229"/>
		<path fill="none" stroke="#391E0E" stroke-width="3" stroke-linecap="round" stroke-linejoin="round" stroke-miterlimit="10" d="
			M423.02,124.736c0,0-2.385,5.332-10.957,5.332c0,0-7.869,0-10.242-5.332"/>
		<circle fill="#391E0E" cx="397.893" cy="106.07" r="2.667"/>
		<circle fill="#391E0E" cx="425.686" cy="106.07" r="2.667"/>
		<circle fill="#C78B64" cx="384.686" cy="114.779" r="5.797"/>
		<circle fill="#C78B64" cx="438.02" cy="114.779" r="5.797"/>
	</g>
	<g>
		<path fill="#A6A8AB" d="M130.716,91.199l25.875,3.375c0,0,3.5,13-1.5,19.625l-24.375,2.75V91.199z"/>
		<ellipse fill="#6D6E70" cx="130.966" cy="104.074" rx="4.125" ry="12.875"/>
	</g>
	<g>
		<path fill="#C99C6A" d="M443.697,168.307c0,0-7.414-7.104-22.555-25.648l-6.004,2.504c0,0,10.496,17.214,25.846,27.159"/>
		<circle fill="#B48C5F" cx="416.238" cy="136.912" r="9.348"/>
	</g>
</g>
<rect fill="none" width="500" height="300"/>
</svg>
