<?xml version="1.0" encoding="utf-8"?>
<!-- Generator: Adobe Illustrator 16.0.0, SVG Export Plug-In . SVG Version: 6.00 Build 0)  -->
<!DOCTYPE svg PUBLIC "-//W3C//DTD SVG 1.1//EN" "http://www.w3.org/Graphics/SVG/1.1/DTD/svg11.dtd">
<svg version="1.1" id="Layer_1" xmlns="http://www.w3.org/2000/svg" xmlns:xlink="http://www.w3.org/1999/xlink" x="0px" y="0px"
	 width="500px" height="300px" viewBox="0 0 500 300" enable-background="new 0 0 500 300" xml:space="preserve">
<g>
	<path fill="#521605" d="M351.246,216.893c0,7.18-3.248,13-7.254,13h-11.994c-4.006,0-7.252-5.82-7.252-13v-9.75
		c0-7.181,3.246-13,7.252-13h11.994c4.006,0,7.254,5.819,7.254,13V216.893z"/>
	<path fill="#521605" d="M224.746,167.56c0,12.701-10.297,23-23,23h-18.334c-12.703,0-23-10.299-23-23v-33c0-12.703,10.297-23,23-23
		h18.334c12.703,0,23,10.297,23,23V167.56z"/>
	<g>
		<g>
			<path fill="#C99C6A" d="M290.744,162.169c0,0-12.892,14.457-21.631,34.932l-5.789-2.932c0,0,16.711-29.459,24.233-35.824"/>
			<circle fill="#B48C5F" cx="267.514" cy="191.807" r="8.335"/>
		</g>
		<g>
			<path fill="#C99C6A" d="M330.494,161.837c0,0,9.125,16.261,17.813,35.761l5.75-0.75c0,0-7.38-32.813-21.349-39.468"/>
			<circle fill="#B48C5F" cx="351.914" cy="200.307" r="8.335"/>
		</g>
		<path fill="#0071BB" d="M341.492,213.128c-20.658,6-42.596,6-63.252,0c0-2.584,1.024-5.168,1.024-7.75c21.083,0,40.166,0,61.25,0
			C340.516,207.962,341.492,210.546,341.492,213.128z"/>
		<g>
			<polygon fill="#0071BB" points="304.016,263.878 296.516,263.878 293.102,216.382 304.016,216.382 			"/>
			<rect x="282.766" y="262.128" fill="#383738" width="21.25" height="6.25"/>
		</g>
		<g>
			<polygon fill="#0071BB" points="316.568,263.878 324.068,263.878 327.481,216.382 316.568,216.382 			"/>
			<rect x="316.856" y="262.128" fill="#383738" width="21.25" height="6.25"/>
		</g>
		<path fill="#391E0E" d="M267.724,102.152c0,0-10.876,44.28-9.036,49.164c0,0,27.999,17.646,90.365,10.035
			c0,0,0.24-11.706,1.904-50.574L267.724,102.152z"/>
		<g>
			<path fill="#383738" d="M320.33,142.262h-23.334c0,0-19.414,21.403-18.746,69.243h63.25
				C341.5,211.503,338.664,158.796,320.33,142.262z"/>
			<path fill="#656668" d="M295.711,140.189c0,0,5.166,2.612,23.5,0c0,0,4.25,4.235,11.584,6.397c0,0-8.451,9.733-21.895,0
				c0,0-10.439,7.211-24.439,1.804C284.461,148.391,293.322,142.691,295.711,140.189z"/>
			<path fill="#656668" d="M313.434,160.672c0-1.821-1.686-1.875-1.686-1.875c-1.473,0-1.809,1.674-1.886,2.047
				c-0.073-0.373-0.409-2.047-1.883-2.047c0,0-1.687,0.054-1.687,1.875c0,0-0.104,2.289,3.545,4.185v0.024
				c0.011-0.004,0.017-0.008,0.021-0.016c0.01,0.008,0.016,0.012,0.021,0.016v-0.024
				C313.539,162.962,313.434,160.672,313.434,160.672z"/>
			<path fill="#656668" d="M313.434,179.061c0-1.822-1.686-1.875-1.686-1.875c-1.473,0-1.809,1.674-1.886,2.047
				c-0.073-0.373-0.409-2.047-1.883-2.047c0,0-1.687,0.053-1.687,1.875c0,0-0.104,2.289,3.545,4.184v0.025
				c0.011-0.004,0.017-0.009,0.021-0.015c0.01,0.006,0.016,0.011,0.021,0.015v-0.025
				C313.539,181.35,313.434,179.061,313.434,179.061z"/>
			<path fill="#656668" d="M313.434,197.503c0-1.821-1.686-1.873-1.686-1.873c-1.473,0-1.809,1.672-1.886,2.045
				c-0.073-0.373-0.409-2.045-1.883-2.045c0,0-1.687,0.052-1.687,1.873c0,0-0.104,2.291,3.545,4.187v0.022
				c0.011-0.004,0.017-0.008,0.021-0.014c0.01,0.006,0.016,0.01,0.021,0.014v-0.022
				C313.539,199.794,313.434,197.503,313.434,197.503z"/>
		</g>
		
			<ellipse transform="matrix(-0.1031 0.9947 -0.9947 -0.1031 431.1644 -209.3949)" fill="#1B75BB" cx="309.989" cy="89.696" rx="39.757" ry="42.929"/>
		<g>
			<g>
				<g>
					
						<ellipse transform="matrix(0.0164 0.9999 -0.9999 0.0164 364.1141 -166.1019)" fill="#B48C5F" cx="266.483" cy="102.02" rx="8.417" ry="6.167"/>
				</g>
				<g>
					
						<ellipse transform="matrix(0.2211 -0.9753 0.9753 0.2211 165.8049 429.3347)" fill="#B48C5F" cx="351.681" cy="110.868" rx="8.417" ry="6.167"/>
				</g>
			</g>
		</g>
		<circle fill="#C99C6A" cx="309.778" cy="99.725" r="43.75"/>
		<path fill="#391E0E" d="M264.703,93.268c2.182-21.06,20.232-40.8,47.457-37.978c29.141,3.021,43.502,26.115,41.317,47.176
			c0,0-43.699-2.741-59.794-21.249c0,0-5.732,10.044-27.419,12.351L264.703,93.268z"/>
		<path fill="none" stroke="#C46D5A" stroke-width="3" stroke-linecap="round" stroke-linejoin="round" stroke-miterlimit="10" d="
			M305.1,111.766c0,0-3.178,4.93,2.035,5.47"/>
		<path fill="none" stroke="#391E0E" stroke-width="3" stroke-linecap="round" stroke-linejoin="round" stroke-miterlimit="10" d="
			M316.436,124.23c0,0-2.918,5.06-11.447,4.174c0,0-7.828-0.812-9.638-6.357"/>
		<circle fill="#391E0E" cx="293.367" cy="103.073" r="2.667"/>
		<circle fill="#391E0E" cx="321.012" cy="105.938" r="2.667"/>
		<circle fill="#C78B64" cx="279.332" cy="110.375" r="5.797"/>
		<circle fill="#C78B64" cx="332.381" cy="115.873" r="5.797"/>
	</g>
	<g>
		<path fill="#004376" d="M218.081,189.925c-17.423,6-37.212,3.959-54.634-2.041c0-2.584,0-7.183,0-9.764
			c17.783,0,36.852-1.019,54.634-1.019C218.081,179.686,218.081,187.341,218.081,189.925z"/>
		<g>
			<polygon fill="#004376" points="185.925,263.878 178.425,263.878 175.011,190.225 185.925,190.225 			"/>
			<rect x="164.675" y="262.128" fill="#383738" width="21.25" height="6.25"/>
		</g>
		<g>
			<polygon fill="#004376" points="198.48,263.878 205.98,263.878 209.394,189.365 198.48,189.365 			"/>
			<rect x="198.769" y="262.128" fill="#383738" width="21.25" height="6.25"/>
		</g>
		<g>
			<g>
				<g>
					<path fill="#D5A570" d="M163.446,134.584c0,0-7.424,15.461-13.352,35.969l-5.799,0.048c0,0,3.42-31.612,16.341-40.125"/>
				</g>
				<g>
					<circle fill="#C99C6A" cx="148.085" cy="176.982" r="8.335"/>
				</g>
			</g>
		</g>
		<g>
			<g>
				<g>
					<path fill="#D5A570" d="M222.773,139.186c0,0,9.267,20.354,14.536,41.042l5.015-4.938c0,0-3.97-31.2-16.612-40.12"/>
				</g>
				<g>
					<circle fill="#C99C6A" cx="240.074" cy="180.89" r="8.335"/>
				</g>
			</g>
		</g>
		<path fill="#6FAE6A" d="M194.729,121.364l-17.25-2c0,0-15.997,4.094-27.693,20.572l9.661,7c0,0,6.285-6.822,8.285-8.822
			c0,0-5.535,33.823-4.285,44.823h55.131c0,0,0-23.148,0.151-46.323l5.646,13.072l9.612-8.289c0,0-10.259-18.783-25.759-22.033
			L194.729,121.364z"/>
		<polygon fill="#8CC977" points="210.604,119.364 215.104,122.614 207.104,134.114 192.604,123.114 177.354,134.114 
			168.854,123.864 173.604,119.364 		"/>
		<rect x="190.432" y="122.998" fill="#8CC977" width="4.247" height="59.938"/>
		<g>
			<g>
				<g>
					
						<ellipse transform="matrix(0.2418 0.9703 -0.9703 0.2418 202.5208 -75.4679)" fill="#C99C6A" cx="149.551" cy="91.856" rx="8.417" ry="6.167"/>
				</g>
				<g>
					
						<ellipse transform="matrix(-0.0049 -1 1 -0.0049 154.4894 316.1754)" fill="#C99C6A" cx="234.559" cy="81.221" rx="8.417" ry="6.167"/>
				</g>
			</g>
		</g>
		<circle fill="#D5A570" cx="191.217" cy="79.842" r="43.75"/>
		<path fill="none" stroke="#C46D5A" stroke-width="3" stroke-linecap="round" stroke-linejoin="round" stroke-miterlimit="10" d="
			M189.377,92.628c0,0-1.981,5.521,3.22,4.868"/>
		<path fill="none" stroke="#391E0E" stroke-width="3" stroke-linecap="round" stroke-linejoin="round" stroke-miterlimit="10" d="
			M203.235,102.211c0,0-1.7,5.586-10.209,6.649c0,0-7.811,0.979-10.825-4.02"/>
		<circle fill="#391E0E" cx="175.985" cy="86.81" r="2.667"/>
		<circle fill="#391E0E" cx="203.563" cy="83.357" r="2.667"/>
		<circle fill="#D3976B" cx="163.962" cy="97.091" r="5.798"/>
		<circle fill="#D3976B" cx="216.882" cy="90.468" r="5.797"/>
		<path fill="#321605" d="M185.785,36.431c-23.89,2.989-40.852,24.716-38.004,48.59c6.145-13.197,14.14-17.604,14.14-17.604
			c29.005-9.018,55.845-7.193,55.845-7.193c7.391,4.809,16.662,18.213,16.662,18.213c0.126-1.067,0.22-2.093,0.296-3.097
			c-0.032-0.313-0.054-0.619-0.093-0.932C231.628,50.434,209.759,33.431,185.785,36.431z"/>
		<path fill="#321605" d="M186.787,36.502c0,0,10.563-1.554,18.629-4.88c0,0,3.27,4.708,11.691,2.759c0,0,2.497,6.304,8.61,5.615
			c0,0-2.688,6.725,4.398,19.796"/>
	</g>
	<path fill="#681605" d="M169.454,121.643c0,0,0.625,39.125-6.375,47.375l-0.375,7.125c0,0,16.5-10.875,10-56.375L169.454,121.643z"
		/>
	<path fill="#681605" d="M214.454,121.268c0,0-1.375,40.625,5.625,48.875l-1.375,7c0,0-14.875-12.5-8.375-58L214.454,121.268z"/>
	<path fill="#681605" d="M288.806,150.675c0,0,21.772,32.719,51.606,44.552l1.332,6.834c0,0-46-17.167-56.332-46.5L288.806,150.675z
		"/>
</g>
<rect fill="none" width="500" height="300"/>
</svg>
