<?xml version="1.0" encoding="utf-8"?>
<!-- Generator: Adobe Illustrator 16.0.0, SVG Export Plug-In . SVG Version: 6.00 Build 0)  -->
<!DOCTYPE svg PUBLIC "-//W3C//DTD SVG 1.1//EN" "http://www.w3.org/Graphics/SVG/1.1/DTD/svg11.dtd">
<svg version="1.1" id="Layer_1" xmlns="http://www.w3.org/2000/svg" xmlns:xlink="http://www.w3.org/1999/xlink" x="0px" y="0px"
	 width="500px" height="300px" viewBox="0 0 500 300" enable-background="new 0 0 500 300" xml:space="preserve">
<g>
	<rect x="132.98" y="88.253" fill="#D0D2D3" width="234.039" height="210.551"/>
	<polygon fill="#D0D2D3" points="84.509,119.71 250,1.196 415.49,119.71 	"/>
	<path fill="#C61F25" d="M154.287,137.809c-0.57-48.668,44.359-50.581,44.359-50.581c39.266-0.482,48.938,34.095,51.115,44.009
		c1.895-9.963,10.178-44.745,49.481-45.237c0,0,44.957,0.824,45.541,49.485c0,0,3.592,61.125-93.271,112.914l0.021,0.646
		c-0.218-0.104-0.404-0.232-0.615-0.331c-0.197,0.101-0.431,0.235-0.615,0.321l0.013-0.633
		C152.208,198.979,154.287,137.809,154.287,137.809z"/>
	<g>
		<g>
			<g>
				<g>
					<path fill="#C99C6A" d="M278.098,193.145c0,0-11.525,9.402-30.353,10.705l-0.118,4.864c0,0,27.667-1.425,33.88-13.158"/>
				</g>
				<g>
					<path fill="#B48C5F" d="M243.401,198.539c-3.817-0.594-7.391,2.021-7.984,5.836c-0.592,3.816,2.02,7.391,5.835,7.982
						c3.817,0.594,7.392-2.021,7.984-5.836C249.827,202.707,247.215,199.133,243.401,198.539z"/>
				</g>
			</g>
		</g>
		<g>
			<g>
				<g>
					<path fill="#D5A570" d="M207.846,179.537c0,0,7.37,12.919,24.464,20.91l-1.639,4.58c0,0-25.302-11.287-26.873-24.471"/>
				</g>
				<g>
					<circle fill="#C99C6A" cx="236.793" cy="203.89" r="6.993"/>
				</g>
			</g>
		</g>
		<path fill="#0071BB" d="M315.713,241.585c-17.326,5.032-35.729,5.032-53.057,0c0-2.168,0.857-4.335,0.857-6.502
			c17.687,0,33.692,0,51.379,0C314.895,237.25,315.713,239.417,315.713,241.585z"/>
		<g>
			<polygon fill="#0071BB" points="284.277,284.156 277.985,284.156 275.121,244.314 284.277,244.314 			"/>
			<rect x="266.451" y="282.688" fill="#383738" width="17.826" height="5.244"/>
		</g>
		<g>
			<polygon fill="#0071BB" points="300.012,284.156 293.721,284.156 290.86,244.314 300.012,244.314 			"/>
			<rect x="281.946" y="282.688" fill="#383738" width="17.826" height="5.244"/>
		</g>
		<g>
			<path fill="#383738" d="M297.963,173.947h-19.574c0,0-16.283,20.485-15.726,66.274h53.058
				C315.721,240.221,313.342,189.773,297.963,173.947z"/>
			<path fill="#656668" d="M269.272,180.929c0,0,6.899-5.722,8.901-8.116c0,0,4.942,2.037,20.321-0.466
				C298.496,172.347,296.608,182.818,269.272,180.929z"/>
			<path fill="#656668" d="M269.568,192.052c0.167-0.312,0.913-1.707,2.074-1.226c0,0,1.311,0.603,0.787,2.24
				c0,0-0.576,2.095-4,2.598l-0.004,0.023c-0.008-0.008-0.012-0.016-0.018-0.021c-0.009,0.003-0.014,0.003-0.021,0.005l0.008-0.021"
				/>
			<path fill="#656668" d="M265.168,209.22c0.108-0.342,0.588-1.882,1.809-1.681c0,0,1.393,0.277,1.175,2.005
				c0,0-0.187,2.185-3.444,3.479l-0.002,0.021c-0.008-0.003-0.013-0.008-0.018-0.016c-0.01,0.004-0.014,0.008-0.021,0.01
				l0.004-0.022"/>
			<path fill="#656668" d="M263.032,226.3c0.079-0.354,0.429-1.938,1.66-1.869c0,0,1.409,0.126,1.335,1.869
				c0,0-0.003,2.194-3.141,3.836v0.022c-0.006-0.006-0.014-0.01-0.019-0.014c-0.008,0.004-0.013,0.008-0.019,0.012v-0.022"/>
		</g>
		<path fill="#6FAE6A" d="M215.378,161.726l4.791,5.321c-0.127,19.438,2.914,51.65,2.914,51.65h-46.246
			c-1.048-9.228,3.595-37.6,3.595-37.6s3.187-13.292,4.211-20.841C185.671,152.708,215.378,161.726,215.378,161.726z"/>
		<polyline fill="#6FAE6A" points="214.402,165.37 203.078,167.047 188.607,165.37 		"/>
		<polygon fill="#8CC977" points="221.951,213.418 218.387,213.418 216.716,163.139 220.28,163.139 		"/>
		<g>
			<g>
				<g>
					<path fill="#D5A570" d="M209.734,186.038c0,0,7.37,12.919,24.465,20.911l-1.64,4.578c0,0-25.301-11.285-26.873-24.47"/>
				</g>
				<g>
					<circle fill="#C99C6A" cx="238.68" cy="210.391" r="6.992"/>
				</g>
			</g>
		</g>
		<polyline fill="#8CC977" points="206.466,166.208 218.497,170.605 219.333,160.254 		"/>
		<g>
			
				<path fill="none" stroke="#C46D5A" stroke-width="2.5165" stroke-linecap="round" stroke-linejoin="round" stroke-miterlimit="10" d="
				M242.158,139.677c0,0,3.129,3.794-1.162,4.755"/>
			<path fill="#D5A570" d="M243.1,123.786c-4.431-19.777-24.057-32.22-43.836-27.789c-19.776,4.431-32.219,24.057-27.788,43.836
				c4.43,19.776,24.056,32.22,43.834,27.789C235.089,163.191,247.53,143.564,243.1,123.786z"/>
			
				<path fill="none" stroke="#391E0E" stroke-width="2.5165" stroke-linecap="round" stroke-linejoin="round" stroke-miterlimit="10" d="
				M236.094,154.342c0,0-7.359-1.206-9.758-5.473"/>
			<circle fill="#391E0E" cx="234.113" cy="131.969" r="2.237"/>
			<circle fill="#D3976B" cx="222.56" cy="139.228" r="4.863"/>
			<path fill="#321605" d="M218.343,109.887c0,0-8.084,29.125-18.355,24.973c0,0,1.132,16.744-20.637,20.752
				c0,0-6.97-0.43-8.892-22.142C170.459,133.47,189.977,99.796,218.343,109.887z"/>
			<g>
				<g>
					<g>
						
							<ellipse transform="matrix(0.9983 -0.0583 0.0583 0.9983 -7.6165 11.9944)" fill="#C99C6A" cx="201.668" cy="136.476" rx="5.174" ry="7.061"/>
					</g>
				</g>
			</g>
			<path fill="#321605" d="M220.478,111.2c0,0,3.463,0.547,17.341,0.241c0,0,0.379-2.693,2.086-5.773
				c3.181-5.737,9.037-7.091,9.037-7.091c-4.647,0.261-6.822-6.85-6.822-6.85c-6.616,2.968-10.07-0.375-10.07-0.375
				c-6.1,4.048-28.743,2.261-28.743,2.261l-7.21,2.971c-19.178,6.335-30.188,25.943-23.974,45.13
				c2.917-11.858,8.784-16.782,8.784-16.782C203.317,112.807,220.478,111.2,220.478,111.2"/>
		</g>
		<path fill="#004376" d="M223.178,223.716c-15.083,5.035-32.214,3.322-47.297-1.712c0-2.166,0-6.023,0-8.191
			c15.395,0,31.902-0.854,47.297-0.854C223.178,215.126,223.178,221.55,223.178,223.716z"/>
		<g>
			<polygon fill="#004376" points="189.284,285.751 195.575,285.751 198.439,223.965 189.284,223.965 			"/>
			<rect x="189.284" y="284.283" fill="#383738" width="17.826" height="5.242"/>
		</g>
		<g>
			<polygon fill="#004376" points="203.801,285.751 210.092,285.751 212.954,223.246 203.801,223.246 			"/>
			<rect x="204.042" y="284.283" fill="#383738" width="17.826" height="5.242"/>
		</g>
		<g>
			<g>
				<g>
					<path fill="#C99C6A" d="M277.26,200.904c0,0-11.525,9.402-30.353,10.705l-0.118,4.864c0,0,27.667-1.425,33.879-13.157"/>
				</g>
				<g>
					<path fill="#B48C5F" d="M242.562,206.299c-3.817-0.593-7.391,2.02-7.984,5.836c-0.592,3.816,2.02,7.391,5.836,7.982
						c3.817,0.594,7.392-2.021,7.983-5.836C248.988,210.466,246.376,206.892,242.562,206.299z"/>
				</g>
			</g>
		</g>
		
			<path fill="none" stroke="#C46D5A" stroke-width="2.5165" stroke-linecap="round" stroke-linejoin="round" stroke-miterlimit="10" d="
			M251.117,142.588c0,0-3.803,3.119,0.221,4.891"/>
		<path fill="#C99C6A" d="M253.367,129.779c8.167-17.066,29.826-24.812,48.375-17.298c18.551,7.514,26.969,27.439,18.801,44.507
			c-8.164,17.065-29.824,24.811-48.375,17.299S245.199,146.845,253.367,129.779z"/>
		
			<path fill="none" stroke="#391E0E" stroke-width="2.5165" stroke-linecap="round" stroke-linejoin="round" stroke-miterlimit="10" d="
			M255.872,159.834c0,0,2.236,1.958,7.97-1.678"/>
		<circle fill="#391E0E" cx="263.497" cy="140.597" r="2.236"/>
		<circle fill="#C78B64" cx="269.629" cy="151.768" r="4.863"/>
		<g>
			<g>
				<g>
					
						<ellipse transform="matrix(-0.9682 -0.2502 0.2502 -0.9682 535.8478 372.1097)" fill="#C99C6A" cx="291.575" cy="151.997" rx="5.172" ry="7.06"/>
				</g>
			</g>
		</g>
		<path fill="#391E0E" d="M255.033,126.351c0,0,7.688,9.157,33.975,8.599l19.572-7.829
			C308.58,127.121,262.443,100.626,255.033,126.351z"/>
		<path fill="#391E0E" d="M284.674,147.951c0,0-7.674,37.552-6.359,41.465c0,0,24.533,11.663,48.441-0.501
			c0,0,2.258-8.728,0.934-41.3L284.674,147.951z"/>
		<path fill="#391E0E" d="M327.594,151.166c0,0,3.074-43.619-38.588-46.975c0,0-24.049-3.636-32.574,18.873l23.627,9.088
			l3.914,16.776L327.594,151.166z"/>
		<path fill="#1B75BB" d="M298.373,104.891l-10.766-1.537c0,0,0.367,36.286-3.319,41.941l3.46,5.557
			C287.748,150.851,298.373,139.423,298.373,104.891z"/>
		
			<ellipse transform="matrix(-0.9908 -0.1351 0.1351 -0.9908 544.459 339.4472)" fill="#B48C5F" cx="283.746" cy="151.251" rx="5.172" ry="7.06"/>
	</g>
</g>
<rect fill="none" width="500" height="300"/>
</svg>
