<?xml version="1.0" encoding="utf-8"?>
<!-- Generator: Adobe Illustrator 16.0.0, SVG Export Plug-In . SVG Version: 6.00 Build 0)  -->
<!DOCTYPE svg PUBLIC "-//W3C//DTD SVG 1.1//EN" "http://www.w3.org/Graphics/SVG/1.1/DTD/svg11.dtd">
<svg version="1.1" id="Layer_1" xmlns="http://www.w3.org/2000/svg" xmlns:xlink="http://www.w3.org/1999/xlink" x="0px" y="0px"
	 width="500px" height="300px" viewBox="0 0 500 300" enable-background="new 0 0 500 300" xml:space="preserve">
<g>
	<g>
		<g>
			<g>
				<g>
					<path fill="#D5A570" d="M261.253,138.413c0,0,6.247,17.567,11.517,38.255l5.795,0.23c0,0-1.729-33.584-14.373-42.504"/>
				</g>
				<g>
					<circle fill="#C99C6A" cx="275.868" cy="179.95" r="8.335"/>
				</g>
			</g>
		</g>
		<g>
			<g>
				<g>
					<path fill="#D5A570" d="M191.978,128.462c0,0-14.458-10.264-21.923-31.486l-5.626,1.406c0,0,10.407,31.344,25.858,34.764"/>
				</g>
				<g>
					<circle fill="#C99C6A" cx="166.5" cy="91.255" r="8.335"/>
				</g>
			</g>
		</g>
		<path fill="#004376" d="M256.561,189.152c-17.423,6.002-37.211,3.961-54.635-2.041c0-2.582,0-7.18,0-9.764
			c17.783,0,36.852-1.019,54.635-1.019C256.561,178.914,256.561,186.57,256.561,189.152z"/>
		<path fill="#6FAE6A" d="M233.104,120.198l-17.25-2c0,0-14.033,7.375-29.394,2.457l2.595,15.115c0,0,15.051,3.178,17.051,1.178
			c0,0-5.535,33.821-4.285,44.821h55.132c0,0,0-23.149,0.148-46.321l5.646,13.072l9.609-8.289c0,0-10.258-18.783-25.757-22.033
			L233.104,120.198z"/>
		<g>
			<polygon fill="#004376" points="224.403,263.105 216.903,263.105 213.489,189.451 224.403,189.451 			"/>
			<rect x="203.153" y="261.355" fill="#383738" width="21.25" height="6.25"/>
		</g>
		<g>
			<polygon fill="#004376" points="236.958,263.105 244.458,263.105 247.872,188.594 236.958,188.594 			"/>
			<rect x="237.247" y="261.355" fill="#383738" width="21.25" height="6.25"/>
		</g>
		<polygon fill="#8CC977" points="249.083,118.593 253.583,121.843 245.583,133.343 231.083,122.343 215.833,133.343 
			207.333,123.093 212.083,118.593 		"/>
		<rect x="228.91" y="122.225" fill="#8CC977" width="4.248" height="59.939"/>
		<g>
			<g>
				<g>
					
						<ellipse transform="matrix(0.1194 0.9928 -0.9928 0.1194 251.997 -113.6705)" fill="#C99C6A" cx="190.08" cy="85.227" rx="8.415" ry="6.167"/>
				</g>
				<g>
					
						<ellipse transform="matrix(0.1194 -0.9928 0.9928 0.1194 158.2043 348.8091)" fill="#C99C6A" cx="275.741" cy="85.218" rx="8.415" ry="6.167"/>
				</g>
			</g>
		</g>
		<circle fill="#D5A570" cx="232.91" cy="78.476" r="43.75"/>
		<path fill="none" stroke="#C46D5A" stroke-width="3" stroke-linecap="round" stroke-linejoin="round" stroke-miterlimit="10" d="
			M229.496,90.934c0,0-2.652,5.23,2.59,5.23"/>
		<path fill="none" stroke="#391E0E" stroke-width="3" stroke-linecap="round" stroke-linejoin="round" stroke-miterlimit="10" d="
			M242.057,102.165c0,0-2.381,5.332-10.956,5.332c0,0-7.87,0-10.242-5.332"/>
		<circle fill="#391E0E" cx="216.931" cy="83.499" r="2.667"/>
		<circle fill="#391E0E" cx="244.724" cy="83.499" r="2.667"/>
		<circle fill="#D3976B" cx="203.724" cy="92.208" r="5.798"/>
		<circle fill="#D3976B" cx="257.057" cy="92.208" r="5.797"/>
		<path fill="#321605" d="M232.91,34.726c-24.076,0-43.605,19.45-43.744,43.493c7.736-12.332,16.217-15.713,16.217-15.713
			c29.9-5.344,56.305-0.202,56.305-0.202c6.736,5.688,14.271,20.14,14.271,20.14c0.258-1.043,0.477-2.047,0.678-3.033
			c0.006-0.313,0.023-0.621,0.023-0.935C276.66,54.314,257.07,34.726,232.91,34.726z"/>
		<path fill="#321605" d="M233.896,34.923c0,0,10.674-0.229,19.09-2.529c0,0,2.66,5.077,11.26,4.189c0,0,1.693,6.563,7.848,6.641
			c0,0-3.502,6.34,1.905,20.189"/>
	</g>
	<path fill="none" stroke="#231F20" stroke-linecap="round" stroke-linejoin="round" stroke-miterlimit="10" d="M299.145,104.798
		c0,0-24.979,13.979-11.16,33.225c0,0,18.197,18.386-11.92,42.758"/>
	<g>
		<path fill="#C61F25" d="M340.219,83.252c5.967-13.687-6.502-19.588-6.502-19.588c-11.039-4.821-17.897,3.796-19.695,6.34
			c0.651-3.045,2.464-13.863-8.588-18.688c0,0-12.805-5.135-18.771,8.552c0,0-8.313,16.845,12.886,43.038l-0.085,0.178
			c0.075-0.002,0.146-0.017,0.218-0.018c0.041,0.054,0.09,0.116,0.133,0.165l0.072-0.181
			C333.507,100.788,340.219,83.252,340.219,83.252z"/>
		<polygon fill="#C61F25" points="301.516,99.129 294.477,105.641 301.754,108.812 		"/>
	</g>
</g>
<rect fill="none" width="500" height="300"/>
</svg>
