<?xml version="1.0" encoding="utf-8"?>
<!-- Generator: Adobe Illustrator 16.0.0, SVG Export Plug-In . SVG Version: 6.00 Build 0)  -->
<!DOCTYPE svg PUBLIC "-//W3C//DTD SVG 1.1//EN" "http://www.w3.org/Graphics/SVG/1.1/DTD/svg11.dtd">
<svg version="1.1" id="Layer_1" xmlns="http://www.w3.org/2000/svg" xmlns:xlink="http://www.w3.org/1999/xlink" x="0px" y="0px"
	 width="500px" height="300px" viewBox="0 0 500 300" enable-background="new 0 0 500 300" xml:space="preserve">
<g>
	<g>
		<g>
			<path fill="#0071BB" d="M345.165,235.859c-20.656,6-42.595,6-63.25,0c0-2.584,1.022-5.168,1.022-7.75c21.084,0,40.166,0,61.25,0
				C344.188,230.691,345.165,233.275,345.165,235.859z"/>
			<g>
				<polygon fill="#0071BB" points="307.688,286.609 300.188,286.609 296.773,239.114 307.688,239.114 				"/>
				<rect x="286.438" y="284.859" fill="#383738" width="21.25" height="6.25"/>
			</g>
			<g>
				<polygon fill="#0071BB" points="320.243,286.609 327.743,286.609 331.154,239.114 320.243,239.114 				"/>
				<rect x="320.529" y="284.859" fill="#383738" width="21.25" height="6.25"/>
			</g>
			<path fill="#391E0E" d="M271.172,129.17c0,0-6.254,45.167-3.922,49.833c0,0,29.67,14.668,90.922,0.668
				c0,0-0.969-11.668-3.314-50.5L271.172,129.17L271.172,129.17z"/>
			<g>
				<path fill="#383738" d="M324.002,164.996h-23.334c0,0-19.412,21.398-18.746,69.238h63.25
					C345.172,234.234,342.336,181.525,324.002,164.996z"/>
				<path fill="#656668" d="M299.383,162.922c0,0,5.168,2.615,23.5,0c0,0,4.25,4.234,11.584,6.396c0,0-8.449,9.732-21.893,0
					c0,0-10.439,7.211-24.439,1.805C288.135,171.123,296.997,165.424,299.383,162.922z"/>
				<path fill="#656668" d="M317.105,183.402c0-1.82-1.686-1.875-1.686-1.875c-1.471,0-1.807,1.676-1.885,2.048
					c-0.074-0.372-0.41-2.048-1.885-2.048c0,0-1.686,0.055-1.686,1.875c0,0-0.104,2.289,3.545,4.186v0.023
					c0.008-0.004,0.016-0.008,0.021-0.014c0.01,0.006,0.016,0.01,0.021,0.014v-0.023
					C317.211,185.691,317.105,183.402,317.105,183.402z"/>
				<path fill="#656668" d="M317.105,201.793c0-1.822-1.686-1.875-1.686-1.875c-1.471,0-1.807,1.674-1.885,2.047
					c-0.074-0.373-0.41-2.047-1.885-2.047c0,0-1.686,0.053-1.686,1.875c0,0-0.104,2.289,3.545,4.184v0.025
					c0.008-0.004,0.016-0.01,0.021-0.016c0.01,0.006,0.016,0.012,0.021,0.016v-0.025
					C317.211,204.082,317.105,201.793,317.105,201.793z"/>
				<path fill="#656668" d="M317.105,220.232c0-1.82-1.686-1.873-1.686-1.873c-1.471,0-1.807,1.673-1.885,2.046
					c-0.074-0.373-0.41-2.046-1.885-2.046c0,0-1.686,0.053-1.686,1.873c0,0-0.104,2.291,3.545,4.188v0.021
					c0.008-0.004,0.016-0.008,0.021-0.012c0.01,0.004,0.016,0.008,0.021,0.012v-0.021
					C317.211,222.523,317.105,220.232,317.105,220.232z"/>
			</g>
			<ellipse fill="#1B75BB" cx="311.93" cy="112.424" rx="42.928" ry="39.752"/>
			<g>
				<g>
					<g>
						
							<ellipse transform="matrix(0.9928 -0.1194 0.1194 0.9928 -13.493 33.1556)" fill="#B48C5F" cx="269.917" cy="129.169" rx="6.164" ry="8.415"/>
					</g>
					<g>
						
							<ellipse transform="matrix(-0.9928 -0.1194 0.1194 -0.9928 693.2103 299.8628)" fill="#B48C5F" cx="355.588" cy="129.164" rx="6.165" ry="8.416"/>
					</g>
				</g>
			</g>
			<circle fill="#C99C6A" cx="312.752" cy="122.422" r="43.75"/>
			<path fill="#391E0E" d="M267.251,120.645c0-21.172,15.922-42.666,43.293-42.666c29.295,0,45.959,21.494,45.959,42.666
				c0,0-43.75,1.777-61.666-14.973c0,0-4.666,10.58-26,15.108L267.251,120.645z"/>
			<path fill="none" stroke="#C46D5A" stroke-width="3" stroke-linecap="round" stroke-linejoin="round" stroke-miterlimit="10" d="
				M305.174,134.879c0,0-2.65,5.229,2.59,5.229"/>
			<path fill="none" stroke="#391E0E" stroke-width="3" stroke-linecap="round" stroke-linejoin="round" stroke-miterlimit="10" d="
				M317.734,146.11c0,0-2.385,5.332-10.957,5.332c0,0-7.868,0-10.241-5.332"/>
			<circle fill="#391E0E" cx="292.607" cy="127.444" r="2.667"/>
			<circle fill="#391E0E" cx="320.402" cy="127.444" r="2.667"/>
			<ellipse fill="#C78B64" cx="279.4" cy="136.153" rx="4.791" ry="4.454"/>
			<circle fill="#C78B64" cx="332.734" cy="136.153" r="5.797"/>
			<g>
				<path fill="#C99C6A" d="M282.834,188.205c0,0,1.783-6.002,16.924-24.551l6.002,2.504c0,0-11.463,18.412-20.211,26.061"/>
				<circle fill="#B48C5F" cx="304.661" cy="157.91" r="9.348"/>
			</g>
			<g>
				<path fill="#C99C6A" d="M340.775,189.307c0,0-7.414-7.104-22.557-25.648l-6.004,2.506c0,0,10.498,17.215,25.848,27.154"/>
				<circle fill="#B48C5F" cx="313.316" cy="157.91" r="9.348"/>
			</g>
		</g>
		<g>
			<g>
				<path fill="#C1B49A" d="M244.482,179.107c-0.336,0.457-0.764,0.936-1.31,1.418c2.644,1.371,4.419,4.168,4.335,7.341
					c-0.117,4.425-3.813,7.929-8.237,7.81c-4.425-0.115-7.927-3.813-7.81-8.234c0.084-3.17,2.007-5.866,4.719-7.1
					c-0.519-0.512-0.92-1.012-1.232-1.484c-3.102,1.604-5.263,4.804-5.362,8.535c-0.146,5.457,4.178,10.017,9.636,10.162
					c5.457,0.146,10.017-4.18,10.161-9.639C249.482,184.186,247.495,180.877,244.482,179.107z"/>
				<path fill="#0071BB" d="M244.773,175.975c0.067-2.541-2.279-2.676-2.279-2.676c-2.051-0.055-2.582,2.268-2.703,2.783
					c-0.092-0.521-0.498-2.867-2.55-2.924c0,0-2.351,0.01-2.417,2.553c0,0-0.233,3.188,4.787,5.969l-0.001,0.033
					c0.012-0.006,0.021-0.014,0.032-0.02c0.011,0.006,0.021,0.016,0.031,0.02l0.001-0.033
					C244.835,179.172,244.773,175.975,244.773,175.975z"/>
			</g>
			<path fill="#6FAE6A" d="M200.39,193.277l5.711,6.346c-0.151,23.172,3.474,61.572,3.474,61.572h-55.131
				c-1.25-11,4.285-44.82,4.285-44.82s3.798-15.848,5.022-24.848S200.39,193.277,200.39,193.277z"/>
			<path fill="#004376" d="M209.078,267.736c-17.423,6-37.212,3.959-54.634-2.041c0-2.584,0-7.183,0-9.764
				c17.783,0,36.852-1.02,54.634-1.02C209.078,257.498,209.078,265.152,209.078,267.736z"/>
			<g>
				<polygon fill="#004376" points="140.227,272.527 137.278,279.426 163.02,294.682 167.706,284.273 				"/>
				<polygon fill="#004376" points="163.02,294.682 170.52,294.682 173.933,264.797 163.02,264.797 				"/>
				
					<rect x="124.049" y="278.892" transform="matrix(0.393 -0.9195 0.9195 0.393 -177.5781 295.0108)" fill="#383738" width="21.248" height="6.248"/>
			</g>
			<g>
				<polygon fill="#004376" points="216.583,284.465 224.043,285.239 231,256.139 219.673,254.741 				"/>
				<polygon fill="#004376" points="231,256.139 228.782,248.975 208.313,255.063 202.456,264.98 				"/>
				
					<rect x="216.7" y="282.875" transform="matrix(-0.9999 -0.0111 0.0111 -0.9999 451.4633 574.4968)" fill="#383738" width="21.245" height="6.246"/>
			</g>
			<polyline fill="#6FAE6A" points="199.226,197.623 185.726,199.623 168.476,197.623 			"/>
			<polygon fill="#8CC977" points="208.906,254.875 204.188,254.938 201.984,194.963 206.232,194.963 			"/>
			<g>
				<g>
					<g>
						<path fill="#D5A570" d="M194.343,219.055c0,0,17.393-3.449,32.888-19.76l4.559,3.584c0,0-22.321,24.344-37.819,21.141"/>
					</g>
					<g>
						<path fill="#C99C6A" d="M225.652,191.27c2.353-3.959,7.468-5.258,11.425-2.904c3.955,2.354,5.257,7.469,2.903,11.428
							c-2.354,3.957-7.469,5.256-11.425,2.898C224.6,200.34,223.299,195.225,225.652,191.27z"/>
					</g>
				</g>
			</g>
			<polyline fill="#8CC977" points="189.765,198.623 204.107,203.864 205.104,191.523 			"/>
			<path fill="none" stroke="#C46D5A" stroke-width="3" stroke-linecap="round" stroke-linejoin="round" stroke-miterlimit="10" d="
				M226.634,152.68c0,0,4.534,3.719-0.264,5.83"/>
			<circle fill="#D5A570" cx="183.287" cy="157.254" r="43.75"/>
			<path fill="none" stroke="#391E0E" stroke-width="3" stroke-linecap="round" stroke-linejoin="round" stroke-miterlimit="10" d="
				M223.808,172.309c0,0-7.386,4.947-12.95,3.188"/>
			<circle fill="#391E0E" cx="211.25" cy="150.432" r="2.666"/>
			<circle fill="#D3976B" cx="204.108" cy="167.416" r="5.797"/>
			<path fill="#321605" d="M191.17,129.066c0,0-2.75,35.93-15.719,33.438c0,0,5.177,19.321-19.362,29.021
				c0,0-8.251,1.104-15.498-23.854C140.591,167.674,155.67,123.793,191.17,129.066z"/>
			<g>
				<g>
					<g>
						
							<ellipse transform="matrix(-0.9683 0.2499 -0.2499 -0.9683 390.954 278.3751)" fill="#C99C6A" cx="177.804" cy="164.008" rx="6.166" ry="8.415"/>
					</g>
				</g>
			</g>
			<path fill="#321605" d="M193.971,130.11c0,0,4.178-0.156,20.338-3.709c0,0-0.176-3.236,1.112-7.232
				c2.399-7.442,8.938-10.375,8.938-10.375c-5.375,1.375-9.556-6.441-9.556-6.441c-7.055,4.995-11.865,1.879-11.865,1.879
				c-6.201,6.14-33.1,9.262-33.1,9.262l-7.75,5.136c-20.973,11.824-29.338,37.292-17.651,58.306c0.683-14.543,6.41-21.65,6.41-21.65
				C174.269,135.941,193.971,130.11,193.971,130.11"/>
		</g>
	</g>
	<g>
		<g>
			<g>
				<path fill="#C61F25" d="M79.271,155.377c-1.802-7.387,4.968-9.262,4.968-9.262c5.958-1.457,8.648,3.467,9.329,4.896
					c-0.063-1.584-0.028-7.168,5.936-8.627c0,0,6.871-1.458,8.673,5.926c0,0,2.701,9.174-10.214,20.469l0.026,0.098
					c-0.037-0.01-0.071-0.021-0.107-0.027c-0.026,0.023-0.056,0.051-0.082,0.07l-0.021-0.098
					C81.111,164.76,79.271,155.377,79.271,155.377z"/>
			</g>
			<g>
				<path fill="#C61F25" d="M145.809,51.804c-3.928-10.229,5.408-14.148,5.408-14.148c8.252-3.173,12.998,3.37,14.234,5.294
					c-0.38-2.253-1.353-10.243,6.907-13.421c0,0,9.557-3.345,13.485,6.886c0,0,5.541,12.623-10.858,31.134l0.056,0.133
					c-0.055-0.004-0.105-0.018-0.158-0.021c-0.032,0.037-0.071,0.083-0.103,0.117l-0.047-0.135
					C150.154,64.881,145.809,51.804,145.809,51.804z"/>
			</g>
			<g>
				<path fill="#F8BDE0" d="M224.806,68.122c-2.595-6.758,3.572-9.347,3.572-9.347c5.451-2.096,8.586,2.228,9.402,3.497
					c-0.251-1.488-0.894-6.767,4.563-8.865c0,0,6.314-2.209,8.909,4.549c0,0,3.66,8.338-7.172,20.564l0.037,0.088
					c-0.036-0.003-0.069-0.012-0.104-0.014c-0.021,0.023-0.047,0.055-0.068,0.077l-0.031-0.089
					C227.676,76.759,224.806,68.122,224.806,68.122z"/>
			</g>
			<g>
				<path fill="#C61F25" d="M329.186,12.405c5.474-10.794,15.599-6.048,15.599-6.048c8.711,4.41,6.864,13.145,6.204,15.581
					c1.563-1.979,7.39-8.695,16.105-4.281c0,0,9.816,5.352,4.351,16.146c0,0-6.234,13.889-33.546,14.164l-0.065,0.145
					c-0.037-0.048-0.063-0.099-0.101-0.145c-0.059,0-0.121,0.004-0.176,0.002l0.074-0.139
					C321.689,25.652,329.186,12.405,329.186,12.405z"/>
			</g>
			<g>
				<path fill="#C61F25" d="M372.2,172.146c-0.789-7.195,5.834-8.129,5.834-8.129c5.805-0.643,7.733,4.338,8.203,5.771
					c0.137-1.502,0.854-6.771,6.668-7.412c0,0,6.668-0.527,7.457,6.666c0,0,1.418,8.994-12.17,18.063l0.014,0.099
					c-0.035-0.017-0.064-0.029-0.098-0.041c-0.027,0.019-0.063,0.041-0.086,0.058l-0.011-0.095
					C372.778,181.23,372.2,172.146,372.2,172.146z"/>
			</g>
			<g>
				<path fill="#F8BDE0" d="M391.59,86.304c1.354-10.179,10.791-9.22,10.791-9.22c8.213,1.088,9.188,8.599,9.34,10.734
					c0.697-2.022,3.479-9.034,11.697-7.946c0,0,9.363,1.53,8.012,11.708c0,0-1.098,12.868-22.887,20.753l-0.014,0.136
					c-0.043-0.03-0.078-0.063-0.121-0.09c-0.043,0.016-0.101,0.037-0.142,0.05l0.021-0.131
					C389.307,99.01,391.59,86.304,391.59,86.304z"/>
			</g>
			<g>
				<path fill="#F8BDE0" d="M71.767,83.571c-7.079-7.157-0.669-13.899-0.669-13.899c5.773-5.713,12.179-1.96,13.929-0.796
					c-1.151-1.755-4.917-8.12,0.86-13.84c0,0,6.806-6.34,13.885,0.817c0,0,9.319,8.576,2.351,30.199l0.094,0.092
					c-0.046,0.015-0.094,0.023-0.14,0.04c-0.013,0.044-0.03,0.096-0.044,0.137l-0.088-0.095
					C80.247,92.971,71.767,83.571,71.767,83.571z"/>
			</g>
		</g>
	</g>
</g>
<rect fill="none" width="500" height="300"/>
</svg>
