<?xml version="1.0" encoding="utf-8"?>
<!-- Generator: Adobe Illustrator 16.0.0, SVG Export Plug-In . SVG Version: 6.00 Build 0)  -->
<!DOCTYPE svg PUBLIC "-//W3C//DTD SVG 1.1//EN" "http://www.w3.org/Graphics/SVG/1.1/DTD/svg11.dtd">
<svg version="1.1" id="Layer_1" xmlns="http://www.w3.org/2000/svg" xmlns:xlink="http://www.w3.org/1999/xlink" x="0px" y="0px"
	 width="500px" height="300px" viewBox="0 0 500 300" enable-background="new 0 0 500 300" xml:space="preserve">
<g>
	<ellipse fill="#D0D2D3" cx="397.916" cy="55.415" rx="55.668" ry="44.333"/>
	<path fill="#D0D2D3" d="M362.583,84.582c0,0-2.5,13.5-13.5,16.5c0,0,13,5.5,30.5-6.5"/>
	<g>
		<g>
			<g>
				<g>
					<path fill="#C99C6A" d="M286.624,174.021c0,0-13.74,11.209-36.184,12.763l-0.141,5.799c0,0,32.983-1.698,40.389-15.687"/>
				</g>
				<g>
					<path fill="#B48C5F" d="M245.261,180.453c-4.55-0.707-8.81,2.408-9.518,6.957c-0.706,4.549,2.407,8.81,6.957,9.517
						c4.55,0.707,8.812-2.408,9.516-6.957C252.921,185.42,249.808,181.16,245.261,180.453z"/>
				</g>
			</g>
		</g>
		<g>
			<g>
				<g>
					<path fill="#D5A570" d="M202.876,157.8c0,0,8.786,15.4,29.165,24.93l-1.955,5.457c0,0-30.162-13.453-32.036-29.17"/>
				</g>
				<g>
					<circle fill="#C99C6A" cx="237.383" cy="186.83" r="8.335"/>
				</g>
			</g>
		</g>
		<path fill="#0071BB" d="M331.464,231.767c-20.655,6-42.594,6-63.25,0c0-2.584,1.022-5.168,1.022-7.75c21.084,0,40.166,0,61.25,0
			C330.49,226.599,331.464,229.183,331.464,231.767z"/>
		<g>
			<polygon fill="#0071BB" points="293.99,282.517 286.49,282.517 283.076,235.021 293.99,235.021 			"/>
			<rect x="272.74" y="280.767" fill="#383738" width="21.25" height="6.25"/>
		</g>
		<g>
			<polygon fill="#0071BB" points="312.749,282.517 305.249,282.517 301.835,235.021 312.749,235.021 			"/>
			<rect x="291.21" y="280.767" fill="#383738" width="21.25" height="6.25"/>
		</g>
		<g>
			<path fill="#383738" d="M310.303,151.135h-23.332c0,0-19.414,24.423-18.748,79.009h63.25
				C331.473,230.142,328.637,170,310.303,151.135z"/>
			<path fill="#656668" d="M276.104,159.459c0,0,8.225-6.82,10.61-9.676c0,0,5.894,2.428,24.226-0.555
				C310.939,149.228,308.689,161.709,276.104,159.459z"/>
			<path fill="#656668" d="M276.457,172.72c0.199-0.371,1.088-2.035,2.473-1.459c0,0,1.563,0.717,0.938,2.67
				c0,0-0.687,2.496-4.767,3.096l-0.008,0.027c-0.008-0.01-0.012-0.018-0.018-0.023c-0.012,0.004-0.018,0.004-0.025,0.006
				l0.008-0.023"/>
			<path fill="#656668" d="M271.21,193.185c0.127-0.407,0.699-2.243,2.156-2.004c0,0,1.657,0.332,1.397,2.392
				c0,0-0.223,2.603-4.104,4.147l-0.004,0.026c-0.009-0.004-0.015-0.01-0.021-0.019c-0.01,0.004-0.016,0.009-0.024,0.011
				l0.006-0.027"/>
			<path fill="#656668" d="M268.666,213.545c0.094-0.422,0.51-2.309,1.979-2.227c0,0,1.681,0.149,1.592,2.227
				c0,0-0.004,2.617-3.741,4.574l-0.002,0.026c-0.007-0.006-0.015-0.012-0.021-0.017c-0.012,0.005-0.018,0.011-0.024,0.015
				l0.002-0.026"/>
		</g>
		<path fill="#6FAE6A" d="M211.855,136.567l5.711,6.344c-0.151,23.171,3.474,61.574,3.474,61.574h-55.131
			c-1.25-11,4.285-44.822,4.285-44.822s3.799-15.845,5.021-24.845C176.44,125.817,211.855,136.567,211.855,136.567z"/>
		<polyline fill="#6FAE6A" points="210.691,140.911 197.191,142.911 179.941,140.911 		"/>
		<polygon fill="#8CC977" points="219.69,198.188 215.442,198.188 213.45,138.249 217.698,138.249 		"/>
		<g>
			<g>
				<g>
					<path fill="#D5A570" d="M205.126,165.55c0,0,8.786,15.4,29.165,24.93l-1.955,5.457c0,0-30.162-13.453-32.036-29.17"/>
				</g>
				<g>
					<circle fill="#C99C6A" cx="239.633" cy="194.58" r="8.335"/>
				</g>
			</g>
		</g>
		<polyline fill="#8CC977" points="201.23,141.911 215.573,147.152 216.569,134.813 		"/>
		<g>
			<path fill="none" stroke="#C46D5A" stroke-width="3" stroke-linecap="round" stroke-linejoin="round" stroke-miterlimit="10" d="
				M243.779,110.283c0,0,3.731,4.522-1.384,5.669"/>
			<circle fill="#D5A570" cx="202.21" cy="100.902" r="43.75"/>
			<path fill="none" stroke="#391E0E" stroke-width="3" stroke-linecap="round" stroke-linejoin="round" stroke-miterlimit="10" d="
				M236.551,127.764c0,0-8.773-1.437-11.633-6.523"/>
			<circle fill="#391E0E" cx="234.189" cy="101.094" r="2.666"/>
			<circle fill="#D3976B" cx="220.416" cy="109.746" r="5.797"/>
			<path fill="#321605" d="M215.389,74.768c0,0-9.637,34.722-21.881,29.771c0,0,1.349,19.96-24.602,24.737
				c0,0-8.309-0.512-10.6-26.396C158.307,102.88,181.575,62.739,215.389,74.768z"/>
			<g>
				<g>
					<g>
						
							<ellipse transform="matrix(0.9983 -0.0584 0.0584 0.9983 -5.8868 11.6058)" fill="#C99C6A" cx="195.508" cy="106.464" rx="6.167" ry="8.417"/>
					</g>
				</g>
			</g>
			<path fill="#321605" d="M217.934,76.333c0,0,4.129,0.652,20.672,0.288c0,0,0.452-3.21,2.488-6.882
				c3.791-6.84,10.772-8.454,10.772-8.454c-5.541,0.312-8.133-8.166-8.133-8.166c-7.887,3.539-12.005-0.448-12.005-0.448
				c-7.271,4.826-34.265,2.696-34.265,2.696l-8.596,3.541c-22.863,7.552-35.988,30.926-28.578,53.8
				c3.477-14.137,10.471-20.006,10.471-20.006C197.477,78.249,217.934,76.333,217.934,76.333"/>
		</g>
		<path fill="#004376" d="M221.153,210.466c-17.98,6.002-38.403,3.961-56.383-2.041c0-2.582,0-7.182,0-9.766
			c18.353,0,38.031-1.018,56.383-1.018C221.153,200.226,221.153,207.884,221.153,210.466z"/>
		<g>
			<polygon fill="#004376" points="180.749,284.418 188.249,284.418 191.663,210.765 180.749,210.765 			"/>
			<rect x="180.749" y="282.668" fill="#383738" width="21.25" height="6.25"/>
		</g>
		<g>
			<polygon fill="#004376" points="198.053,284.418 205.553,284.418 208.965,209.906 198.053,209.906 			"/>
			<rect x="198.34" y="282.668" fill="#383738" width="21.25" height="6.25"/>
		</g>
		<g>
			<g>
				<g>
					<path fill="#C99C6A" d="M285.624,183.271c0,0-13.74,11.209-36.184,12.763l-0.141,5.799c0,0,32.983-1.698,40.389-15.687"/>
				</g>
				<g>
					<path fill="#B48C5F" d="M244.261,189.703c-4.55-0.707-8.81,2.408-9.518,6.957c-0.706,4.549,2.407,8.81,6.957,9.517
						c4.55,0.707,8.812-2.408,9.516-6.957C251.921,194.67,248.808,190.41,244.261,189.703z"/>
				</g>
			</g>
		</g>
		<path fill="none" stroke="#C46D5A" stroke-width="3" stroke-linecap="round" stroke-linejoin="round" stroke-miterlimit="10" d="
			M254.458,113.751c0,0-4.533,3.719,0.265,5.83"/>
		<path fill="#C99C6A" d="M257.141,98.482c9.735-20.345,35.559-29.577,57.67-20.621c22.112,8.958,32.147,32.712,22.414,53.058
			c-9.734,20.347-35.558,29.578-57.672,20.623C257.439,142.583,247.405,118.828,257.141,98.482z"/>
		<path fill="none" stroke="#391E0E" stroke-width="3" stroke-linecap="round" stroke-linejoin="round" stroke-miterlimit="10" d="
			M260.128,134.313c0,0,2.666,2.333,9.5-2"/>
		<circle fill="#391E0E" cx="269.218" cy="111.377" r="2.666"/>
		<circle fill="#C78B64" cx="276.527" cy="124.695" r="5.797"/>
		<g>
			<g>
				<g>
					
						<ellipse transform="matrix(-0.9682 -0.2501 0.2501 -0.9682 564.484 321.6292)" fill="#C99C6A" cx="302.674" cy="124.954" rx="6.167" ry="8.416"/>
				</g>
			</g>
		</g>
		<path fill="#391E0E" d="M259.128,94.396c0,0,9.164,10.916,40.498,10.25l23.334-9.333C322.96,95.313,267.96,63.729,259.128,94.396z
			"/>
		<path fill="#391E0E" d="M294.46,120.146c0,0-9.147,44.764-7.58,49.43c0,0,29.246,13.901,57.746-0.599
			c0,0,2.692-10.401,1.115-49.233L294.46,120.146z"/>
		<path fill="#391E0E" d="M345.626,123.979c0,0,3.668-51.999-46-55.999c0,0-28.666-4.334-38.832,22.499l28.166,10.834l4.668,20
			L345.626,123.979z"/>
		<path fill="#1B75BB" d="M310.794,68.812l-12.834-1.833c0,0,0.438,43.258-3.959,50l4.125,6.625
			C298.126,123.604,310.794,109.978,310.794,68.812z"/>
		
			<ellipse transform="matrix(-0.9908 -0.1352 0.1352 -0.9908 567.2935 286.7104)" fill="#B48C5F" cx="293.382" cy="124.093" rx="6.167" ry="8.418"/>
	</g>
	<ellipse fill="#D0D2D3" cx="102.083" cy="55.415" rx="55.667" ry="44.333"/>
	<path fill="#D0D2D3" d="M137.416,84.582c0,0,2.5,13.5,13.5,16.5c0,0-13,5.5-30.5-6.5"/>
	<g>
		<path fill="#1B75BB" d="M85.131,77.878c-1.009,0-1.877-0.362-2.601-1.087c-0.726-0.725-1.088-1.592-1.088-2.602
			c0-1.071,0.346-1.953,1.041-2.648c0.692-0.692,1.575-1.04,2.647-1.04c1.072,0,1.954,0.348,2.648,1.04
			c0.693,0.695,1.041,1.577,1.041,2.648c0,1.01-0.364,1.877-1.088,2.602C87.007,77.516,86.14,77.878,85.131,77.878z"/>
		<path fill="#1B75BB" d="M102.534,77.878c-1.009,0-1.877-0.362-2.601-1.087c-0.726-0.725-1.088-1.592-1.088-2.602
			c0-1.071,0.346-1.953,1.041-2.648c0.692-0.692,1.575-1.04,2.647-1.04c1.072,0,1.954,0.348,2.648,1.04
			c0.693,0.695,1.041,1.577,1.041,2.648c0,1.01-0.364,1.877-1.088,2.602C104.41,77.515,103.542,77.878,102.534,77.878z"/>
		<path fill="#1B75BB" d="M119.936,77.878c-1.009,0-1.877-0.362-2.601-1.087c-0.726-0.725-1.088-1.592-1.088-2.602
			c0-1.071,0.346-1.953,1.041-2.648c0.692-0.692,1.575-1.04,2.647-1.04c1.072,0,1.954,0.348,2.648,1.04
			c0.693,0.695,1.041,1.577,1.041,2.648c0,1.01-0.364,1.877-1.088,2.602C121.812,77.516,120.945,77.878,119.936,77.878z"/>
	</g>
	<g>
		<path fill="#1B75BB" d="M404.093,57.688c-0.625,0.63-1.235,1.272-1.832,1.93c-0.596,0.658-1.063,1.302-1.403,1.932
			c-0.343,0.63-0.611,1.328-0.812,2.102c-0.2,0.774-0.299,1.501-0.299,2.188c0,0.744,0.086,1.373,0.258,1.889
			c0.172,0.515,0.258,0.942,0.258,1.286c0,1.146-0.399,1.845-1.2,2.103c-0.802,0.257-1.285,0.386-1.46,0.386
			c-0.514,0-0.973-0.142-1.37-0.429c-0.4-0.286-0.688-0.657-0.857-1.115c-0.172-0.457-0.344-1.101-0.516-1.931
			c-0.172-0.828-0.259-1.558-0.259-2.188c0-1.257,0.128-2.401,0.386-3.432c0.254-1.029,0.649-2.029,1.19-3.002
			c0.539-0.973,1.234-1.931,2.088-2.874c0.853-0.944,1.563-1.759,2.13-2.445c2.327-2.401,3.848-4.104,4.559-5.104
			c0.709-1,1.207-1.986,1.49-2.96c0.282-0.972,0.426-1.887,0.426-2.745c0-1.658-0.709-3.188-2.123-4.59
			c-1.418-1.4-3.656-2.103-6.715-2.103c-1.588,0-3.104,0.232-4.547,0.694c-1.445,0.464-2.621,1.187-3.527,2.166
			c-0.906,0.981-1.359,2.071-1.359,3.271c0,1.09,0.125,2.017,0.377,2.778c0.252,0.763,0.882,1.416,1.888,1.961
			c1.008,0.544,1.512,1.308,1.512,2.288c0,0.49-0.172,1.009-0.516,1.554c-0.345,0.545-1.029,0.816-2.06,0.816
			c-0.459,0-1.631-0.552-3.518-1.654c-1.89-1.103-2.832-3.5-2.832-7.193v-0.993c0.229-2.205,1.086-4.204,2.574-5.996
			c1.485-1.791,3.346-3.045,5.575-3.763c2.23-0.717,4.402-1.075,6.521-1.075c4.346,0,7.75,1.201,10.209,3.604
			c2.459,2.403,3.688,5.178,3.688,8.321c0,0.802-0.026,1.416-0.086,1.845c-0.055,0.43-0.297,1.359-0.723,2.788
			c-0.426,1.431-1.193,2.86-2.301,4.289C407.798,53.713,406.195,55.515,404.093,57.688z M399.32,81.451
			c-0.976,0-1.773-0.313-2.402-0.942c-0.629-0.629-0.943-1.43-0.943-2.402c0-0.972,0.314-1.771,0.943-2.401
			c0.629-0.629,1.43-0.943,2.402-0.943c0.914,0,1.701,0.33,2.358,0.985c0.656,0.658,0.986,1.445,0.986,2.359
			c0,0.916-0.33,1.702-0.986,2.359C401.021,81.122,400.234,81.451,399.32,81.451z"/>
	</g>
</g>
<rect fill="none" width="500" height="300"/>
</svg>
